<mxfile host="Electron" modified="2023-12-08T22:31:45.222Z" agent="Mozilla/5.0 (Windows NT 10.0; Win64; x64) AppleWebKit/537.36 (KHTML, like Gecko) draw.io/22.0.3 Chrome/114.0.5735.289 Electron/25.8.4 Safari/537.36" etag="U1dPidYs2QnAaZvIikYI" version="22.0.3" type="device" pages="2">
  <diagram name="MER" id="mhVMg1qLyyuzmh2hZd7N">
    <mxGraphModel dx="1691" dy="1725" grid="1" gridSize="10" guides="1" tooltips="1" connect="1" arrows="1" fold="1" page="1" pageScale="1" pageWidth="827" pageHeight="1169" math="0" shadow="0">
      <root>
        <mxCell id="0" />
        <mxCell id="1" parent="0" />
        <mxCell id="h148b_-GxsQM1g3IfF08-29" style="edgeStyle=orthogonalEdgeStyle;shape=connector;rounded=1;orthogonalLoop=1;jettySize=auto;html=1;exitX=0.75;exitY=1;exitDx=0;exitDy=0;entryX=1;entryY=0.5;entryDx=0;entryDy=0;labelBackgroundColor=default;strokeColor=default;align=center;verticalAlign=middle;fontFamily=Helvetica;fontSize=11;fontColor=default;endArrow=none;endFill=0;" parent="1" source="h148b_-GxsQM1g3IfF08-1" target="h148b_-GxsQM1g3IfF08-28" edge="1">
          <mxGeometry relative="1" as="geometry" />
        </mxCell>
        <mxCell id="h148b_-GxsQM1g3IfF08-31" style="edgeStyle=orthogonalEdgeStyle;shape=connector;rounded=1;orthogonalLoop=1;jettySize=auto;html=1;exitX=0.75;exitY=1;exitDx=0;exitDy=0;entryX=1;entryY=0.5;entryDx=0;entryDy=0;labelBackgroundColor=default;strokeColor=default;align=center;verticalAlign=middle;fontFamily=Helvetica;fontSize=11;fontColor=default;endArrow=none;endFill=0;" parent="1" source="h148b_-GxsQM1g3IfF08-1" target="h148b_-GxsQM1g3IfF08-30" edge="1">
          <mxGeometry relative="1" as="geometry" />
        </mxCell>
        <mxCell id="h148b_-GxsQM1g3IfF08-33" style="edgeStyle=orthogonalEdgeStyle;shape=connector;rounded=1;orthogonalLoop=1;jettySize=auto;html=1;exitX=0.75;exitY=1;exitDx=0;exitDy=0;entryX=1;entryY=0.5;entryDx=0;entryDy=0;labelBackgroundColor=default;strokeColor=default;align=center;verticalAlign=middle;fontFamily=Helvetica;fontSize=11;fontColor=default;endArrow=none;endFill=0;" parent="1" source="h148b_-GxsQM1g3IfF08-1" target="h148b_-GxsQM1g3IfF08-39" edge="1">
          <mxGeometry relative="1" as="geometry">
            <mxPoint x="90" y="220" as="targetPoint" />
            <Array as="points">
              <mxPoint x="115" y="220" />
            </Array>
          </mxGeometry>
        </mxCell>
        <mxCell id="h148b_-GxsQM1g3IfF08-82" style="edgeStyle=orthogonalEdgeStyle;shape=connector;rounded=1;orthogonalLoop=1;jettySize=auto;html=1;exitX=0;exitY=0.5;exitDx=0;exitDy=0;entryX=0.5;entryY=0;entryDx=0;entryDy=0;labelBackgroundColor=default;strokeColor=default;align=center;verticalAlign=middle;fontFamily=Helvetica;fontSize=11;fontColor=default;endArrow=none;endFill=0;" parent="1" source="h148b_-GxsQM1g3IfF08-1" target="h148b_-GxsQM1g3IfF08-81" edge="1">
          <mxGeometry relative="1" as="geometry" />
        </mxCell>
        <mxCell id="h148b_-GxsQM1g3IfF08-90" style="edgeStyle=orthogonalEdgeStyle;shape=connector;rounded=1;orthogonalLoop=1;jettySize=auto;html=1;exitX=0.25;exitY=0;exitDx=0;exitDy=0;entryX=1;entryY=0.5;entryDx=0;entryDy=0;labelBackgroundColor=default;strokeColor=default;align=center;verticalAlign=middle;fontFamily=Helvetica;fontSize=11;fontColor=default;endArrow=none;endFill=0;" parent="1" source="h148b_-GxsQM1g3IfF08-1" target="h148b_-GxsQM1g3IfF08-89" edge="1">
          <mxGeometry relative="1" as="geometry" />
        </mxCell>
        <mxCell id="h148b_-GxsQM1g3IfF08-1" value="EMPLOYEE" style="whiteSpace=wrap;html=1;align=center;rounded=1;" parent="1" vertex="1">
          <mxGeometry x="40" y="40" width="100" height="40" as="geometry" />
        </mxCell>
        <mxCell id="h148b_-GxsQM1g3IfF08-52" style="edgeStyle=orthogonalEdgeStyle;shape=connector;rounded=1;orthogonalLoop=1;jettySize=auto;html=1;exitX=0;exitY=0.5;exitDx=0;exitDy=0;entryX=0.5;entryY=0;entryDx=0;entryDy=0;labelBackgroundColor=default;strokeColor=default;align=center;verticalAlign=middle;fontFamily=Helvetica;fontSize=11;fontColor=default;endArrow=none;endFill=0;" parent="1" source="h148b_-GxsQM1g3IfF08-2" target="h148b_-GxsQM1g3IfF08-51" edge="1">
          <mxGeometry relative="1" as="geometry" />
        </mxCell>
        <mxCell id="h148b_-GxsQM1g3IfF08-54" style="edgeStyle=orthogonalEdgeStyle;shape=connector;rounded=1;orthogonalLoop=1;jettySize=auto;html=1;exitX=1;exitY=0.5;exitDx=0;exitDy=0;entryX=0;entryY=0.5;entryDx=0;entryDy=0;labelBackgroundColor=default;strokeColor=default;align=center;verticalAlign=middle;fontFamily=Helvetica;fontSize=11;fontColor=default;endArrow=none;endFill=0;" parent="1" source="h148b_-GxsQM1g3IfF08-2" target="h148b_-GxsQM1g3IfF08-34" edge="1">
          <mxGeometry relative="1" as="geometry" />
        </mxCell>
        <mxCell id="Sy45V-IsQZUDsXAF__9u-16" style="edgeStyle=orthogonalEdgeStyle;shape=connector;rounded=1;orthogonalLoop=1;jettySize=auto;html=1;exitX=0;exitY=0.5;exitDx=0;exitDy=0;entryX=0;entryY=0.5;entryDx=0;entryDy=0;labelBackgroundColor=default;strokeColor=default;align=center;verticalAlign=middle;fontFamily=Helvetica;fontSize=11;fontColor=default;endArrow=none;endFill=0;" edge="1" parent="1" source="h148b_-GxsQM1g3IfF08-2" target="Sy45V-IsQZUDsXAF__9u-11">
          <mxGeometry relative="1" as="geometry" />
        </mxCell>
        <mxCell id="h148b_-GxsQM1g3IfF08-2" value="SUPPLIER" style="whiteSpace=wrap;html=1;align=center;rounded=1;" parent="1" vertex="1">
          <mxGeometry x="440" y="40" width="100" height="40" as="geometry" />
        </mxCell>
        <mxCell id="h148b_-GxsQM1g3IfF08-14" style="edgeStyle=orthogonalEdgeStyle;shape=link;rounded=1;orthogonalLoop=1;jettySize=auto;html=1;exitX=0.5;exitY=1;exitDx=0;exitDy=0;labelBackgroundColor=default;strokeColor=default;align=center;verticalAlign=middle;fontFamily=Helvetica;fontSize=11;fontColor=default;endArrow=none;endFill=0;" parent="1" source="h148b_-GxsQM1g3IfF08-12" target="h148b_-GxsQM1g3IfF08-13" edge="1">
          <mxGeometry relative="1" as="geometry" />
        </mxCell>
        <mxCell id="h148b_-GxsQM1g3IfF08-24" style="edgeStyle=orthogonalEdgeStyle;shape=connector;rounded=1;orthogonalLoop=1;jettySize=auto;html=1;exitX=0.5;exitY=0;exitDx=0;exitDy=0;entryX=0;entryY=0.5;entryDx=0;entryDy=0;labelBackgroundColor=default;strokeColor=default;align=center;verticalAlign=middle;fontFamily=Helvetica;fontSize=11;fontColor=default;endArrow=none;endFill=0;" parent="1" source="h148b_-GxsQM1g3IfF08-12" target="h148b_-GxsQM1g3IfF08-20" edge="1">
          <mxGeometry relative="1" as="geometry" />
        </mxCell>
        <mxCell id="h148b_-GxsQM1g3IfF08-25" style="edgeStyle=orthogonalEdgeStyle;shape=connector;rounded=1;orthogonalLoop=1;jettySize=auto;html=1;exitX=0.5;exitY=0;exitDx=0;exitDy=0;entryX=0;entryY=0.5;entryDx=0;entryDy=0;labelBackgroundColor=default;strokeColor=default;align=center;verticalAlign=middle;fontFamily=Helvetica;fontSize=11;fontColor=default;endArrow=none;endFill=0;" parent="1" source="h148b_-GxsQM1g3IfF08-12" target="h148b_-GxsQM1g3IfF08-21" edge="1">
          <mxGeometry relative="1" as="geometry" />
        </mxCell>
        <mxCell id="h148b_-GxsQM1g3IfF08-26" style="edgeStyle=orthogonalEdgeStyle;shape=connector;rounded=1;orthogonalLoop=1;jettySize=auto;html=1;exitX=0.5;exitY=0;exitDx=0;exitDy=0;entryX=0;entryY=0.5;entryDx=0;entryDy=0;labelBackgroundColor=default;strokeColor=default;align=center;verticalAlign=middle;fontFamily=Helvetica;fontSize=11;fontColor=default;endArrow=none;endFill=0;" parent="1" source="h148b_-GxsQM1g3IfF08-12" target="h148b_-GxsQM1g3IfF08-22" edge="1">
          <mxGeometry relative="1" as="geometry" />
        </mxCell>
        <mxCell id="h148b_-GxsQM1g3IfF08-27" style="edgeStyle=orthogonalEdgeStyle;shape=connector;rounded=1;orthogonalLoop=1;jettySize=auto;html=1;exitX=0.5;exitY=0;exitDx=0;exitDy=0;entryX=0;entryY=0.5;entryDx=0;entryDy=0;labelBackgroundColor=default;strokeColor=default;align=center;verticalAlign=middle;fontFamily=Helvetica;fontSize=11;fontColor=default;endArrow=none;endFill=0;" parent="1" source="h148b_-GxsQM1g3IfF08-12" target="h148b_-GxsQM1g3IfF08-23" edge="1">
          <mxGeometry relative="1" as="geometry" />
        </mxCell>
        <mxCell id="h148b_-GxsQM1g3IfF08-41" style="edgeStyle=orthogonalEdgeStyle;shape=connector;rounded=1;orthogonalLoop=1;jettySize=auto;html=1;exitX=0.5;exitY=0;exitDx=0;exitDy=0;entryX=0;entryY=0.5;entryDx=0;entryDy=0;labelBackgroundColor=default;strokeColor=default;align=center;verticalAlign=middle;fontFamily=Helvetica;fontSize=11;fontColor=default;endArrow=none;endFill=0;" parent="1" source="h148b_-GxsQM1g3IfF08-12" target="h148b_-GxsQM1g3IfF08-40" edge="1">
          <mxGeometry relative="1" as="geometry" />
        </mxCell>
        <mxCell id="h148b_-GxsQM1g3IfF08-12" value="PERSON" style="whiteSpace=wrap;html=1;align=center;rounded=1;" parent="1" vertex="1">
          <mxGeometry x="250" y="-120" width="100" height="40" as="geometry" />
        </mxCell>
        <mxCell id="h148b_-GxsQM1g3IfF08-15" style="edgeStyle=orthogonalEdgeStyle;shape=connector;rounded=1;orthogonalLoop=1;jettySize=auto;html=1;exitX=0;exitY=0.5;exitDx=0;exitDy=0;entryX=0.75;entryY=0;entryDx=0;entryDy=0;labelBackgroundColor=default;strokeColor=default;align=center;verticalAlign=middle;fontFamily=Helvetica;fontSize=11;fontColor=default;endArrow=none;endFill=0;" parent="1" source="h148b_-GxsQM1g3IfF08-13" target="h148b_-GxsQM1g3IfF08-1" edge="1">
          <mxGeometry relative="1" as="geometry" />
        </mxCell>
        <mxCell id="h148b_-GxsQM1g3IfF08-16" style="edgeStyle=orthogonalEdgeStyle;shape=connector;rounded=1;orthogonalLoop=1;jettySize=auto;html=1;exitX=1;exitY=0.5;exitDx=0;exitDy=0;entryX=0.5;entryY=0;entryDx=0;entryDy=0;labelBackgroundColor=default;strokeColor=default;align=center;verticalAlign=middle;fontFamily=Helvetica;fontSize=11;fontColor=default;endArrow=none;endFill=0;" parent="1" source="h148b_-GxsQM1g3IfF08-13" target="h148b_-GxsQM1g3IfF08-2" edge="1">
          <mxGeometry relative="1" as="geometry" />
        </mxCell>
        <mxCell id="h148b_-GxsQM1g3IfF08-13" value="d" style="ellipse;whiteSpace=wrap;html=1;align=center;rounded=1;fontFamily=Helvetica;fontSize=11;fontColor=default;" parent="1" vertex="1">
          <mxGeometry x="280" y="-30" width="40" height="40" as="geometry" />
        </mxCell>
        <mxCell id="h148b_-GxsQM1g3IfF08-17" value="" style="shape=requiredInterface;html=1;verticalLabelPosition=bottom;sketch=0;rounded=1;fontFamily=Helvetica;fontSize=11;fontColor=default;rotation=90;" parent="1" vertex="1">
          <mxGeometry x="106" width="20" height="40" as="geometry" />
        </mxCell>
        <mxCell id="h148b_-GxsQM1g3IfF08-19" value="" style="shape=requiredInterface;html=1;verticalLabelPosition=bottom;sketch=0;rounded=1;fontFamily=Helvetica;fontSize=11;fontColor=default;rotation=90;" parent="1" vertex="1">
          <mxGeometry x="480" width="20" height="40" as="geometry" />
        </mxCell>
        <mxCell id="h148b_-GxsQM1g3IfF08-20" value="&lt;u&gt;ID&lt;/u&gt;" style="ellipse;whiteSpace=wrap;html=1;align=center;rounded=1;" parent="1" vertex="1">
          <mxGeometry x="390" y="-270" width="100" height="40" as="geometry" />
        </mxCell>
        <mxCell id="h148b_-GxsQM1g3IfF08-21" value="Name" style="ellipse;whiteSpace=wrap;html=1;align=center;rounded=1;" parent="1" vertex="1">
          <mxGeometry x="390" y="-220" width="100" height="40" as="geometry" />
        </mxCell>
        <mxCell id="h148b_-GxsQM1g3IfF08-22" value="Lastname" style="ellipse;whiteSpace=wrap;html=1;align=center;rounded=1;" parent="1" vertex="1">
          <mxGeometry x="390" y="-170" width="100" height="40" as="geometry" />
        </mxCell>
        <mxCell id="h148b_-GxsQM1g3IfF08-23" value="Email" style="ellipse;whiteSpace=wrap;html=1;align=center;rounded=1;" parent="1" vertex="1">
          <mxGeometry x="390" y="-320" width="100" height="40" as="geometry" />
        </mxCell>
        <mxCell id="h148b_-GxsQM1g3IfF08-28" value="Rol" style="ellipse;whiteSpace=wrap;html=1;align=center;rounded=1;" parent="1" vertex="1">
          <mxGeometry x="-10" y="100" width="100" height="40" as="geometry" />
        </mxCell>
        <mxCell id="h148b_-GxsQM1g3IfF08-30" value="Salary" style="ellipse;whiteSpace=wrap;html=1;align=center;rounded=1;" parent="1" vertex="1">
          <mxGeometry x="-10" y="150" width="100" height="40" as="geometry" />
        </mxCell>
        <mxCell id="h148b_-GxsQM1g3IfF08-34" value="Type" style="ellipse;whiteSpace=wrap;html=1;align=center;rounded=1;" parent="1" vertex="1">
          <mxGeometry x="570" y="10" width="100" height="40" as="geometry" />
        </mxCell>
        <mxCell id="h148b_-GxsQM1g3IfF08-39" value="Working_hours" style="ellipse;shape=doubleEllipse;margin=3;whiteSpace=wrap;html=1;align=center;rounded=1;fontFamily=Helvetica;fontSize=11;fontColor=default;" parent="1" vertex="1">
          <mxGeometry x="-10" y="200" width="100" height="40" as="geometry" />
        </mxCell>
        <mxCell id="h148b_-GxsQM1g3IfF08-40" value="Number_phone" style="ellipse;whiteSpace=wrap;html=1;align=center;rounded=1;" parent="1" vertex="1">
          <mxGeometry x="390" y="-370" width="100" height="40" as="geometry" />
        </mxCell>
        <mxCell id="h148b_-GxsQM1g3IfF08-45" style="edgeStyle=orthogonalEdgeStyle;shape=connector;rounded=1;orthogonalLoop=1;jettySize=auto;html=1;exitX=1;exitY=0.5;exitDx=0;exitDy=0;entryX=1;entryY=0.5;entryDx=0;entryDy=0;labelBackgroundColor=default;strokeColor=default;align=center;verticalAlign=middle;fontFamily=Helvetica;fontSize=11;fontColor=default;endArrow=none;endFill=0;" parent="1" source="h148b_-GxsQM1g3IfF08-42" target="h148b_-GxsQM1g3IfF08-43" edge="1">
          <mxGeometry relative="1" as="geometry" />
        </mxCell>
        <mxCell id="h148b_-GxsQM1g3IfF08-49" style="edgeStyle=orthogonalEdgeStyle;shape=connector;rounded=1;orthogonalLoop=1;jettySize=auto;html=1;exitX=1;exitY=0.5;exitDx=0;exitDy=0;entryX=1;entryY=0.5;entryDx=0;entryDy=0;labelBackgroundColor=default;strokeColor=default;align=center;verticalAlign=middle;fontFamily=Helvetica;fontSize=11;fontColor=default;endArrow=none;endFill=0;" parent="1" source="h148b_-GxsQM1g3IfF08-42" target="h148b_-GxsQM1g3IfF08-47" edge="1">
          <mxGeometry relative="1" as="geometry" />
        </mxCell>
        <mxCell id="h148b_-GxsQM1g3IfF08-50" style="edgeStyle=orthogonalEdgeStyle;shape=connector;rounded=1;orthogonalLoop=1;jettySize=auto;html=1;exitX=1;exitY=0.5;exitDx=0;exitDy=0;entryX=1;entryY=0.5;entryDx=0;entryDy=0;labelBackgroundColor=default;strokeColor=default;align=center;verticalAlign=middle;fontFamily=Helvetica;fontSize=11;fontColor=default;endArrow=none;endFill=0;" parent="1" source="h148b_-GxsQM1g3IfF08-42" target="h148b_-GxsQM1g3IfF08-48" edge="1">
          <mxGeometry relative="1" as="geometry" />
        </mxCell>
        <mxCell id="h148b_-GxsQM1g3IfF08-67" style="edgeStyle=orthogonalEdgeStyle;shape=connector;rounded=1;orthogonalLoop=1;jettySize=auto;html=1;exitX=0;exitY=0.5;exitDx=0;exitDy=0;entryX=1;entryY=0.5;entryDx=0;entryDy=0;labelBackgroundColor=default;strokeColor=default;align=center;verticalAlign=middle;fontFamily=Helvetica;fontSize=11;fontColor=default;endArrow=none;endFill=0;" parent="1" source="h148b_-GxsQM1g3IfF08-42" target="h148b_-GxsQM1g3IfF08-65" edge="1">
          <mxGeometry relative="1" as="geometry" />
        </mxCell>
        <mxCell id="Sy45V-IsQZUDsXAF__9u-17" style="edgeStyle=orthogonalEdgeStyle;shape=connector;rounded=1;orthogonalLoop=1;jettySize=auto;html=1;exitX=0;exitY=0.5;exitDx=0;exitDy=0;entryX=0;entryY=0.5;entryDx=0;entryDy=0;labelBackgroundColor=default;strokeColor=default;align=center;verticalAlign=middle;fontFamily=Helvetica;fontSize=11;fontColor=default;endArrow=none;endFill=0;" edge="1" parent="1" source="h148b_-GxsQM1g3IfF08-42" target="Sy45V-IsQZUDsXAF__9u-14">
          <mxGeometry relative="1" as="geometry" />
        </mxCell>
        <mxCell id="h148b_-GxsQM1g3IfF08-42" value="PRODUCT" style="whiteSpace=wrap;html=1;align=center;rounded=1;" parent="1" vertex="1">
          <mxGeometry x="440" y="290" width="100" height="40" as="geometry" />
        </mxCell>
        <mxCell id="h148b_-GxsQM1g3IfF08-43" value="Name" style="ellipse;whiteSpace=wrap;html=1;align=center;rounded=1;" parent="1" vertex="1">
          <mxGeometry x="440" y="350" width="100" height="40" as="geometry" />
        </mxCell>
        <mxCell id="h148b_-GxsQM1g3IfF08-47" value="List_price" style="ellipse;whiteSpace=wrap;html=1;align=center;rounded=1;" parent="1" vertex="1">
          <mxGeometry x="440" y="400" width="100" height="40" as="geometry" />
        </mxCell>
        <mxCell id="h148b_-GxsQM1g3IfF08-48" value="Final_price" style="ellipse;whiteSpace=wrap;html=1;align=center;rounded=1;" parent="1" vertex="1">
          <mxGeometry x="440" y="450" width="100" height="40" as="geometry" />
        </mxCell>
        <mxCell id="h148b_-GxsQM1g3IfF08-53" style="edgeStyle=orthogonalEdgeStyle;shape=connector;rounded=1;orthogonalLoop=1;jettySize=auto;html=1;exitX=0.5;exitY=1;exitDx=0;exitDy=0;entryX=0;entryY=0.5;entryDx=0;entryDy=0;labelBackgroundColor=default;strokeColor=default;align=center;verticalAlign=middle;fontFamily=Helvetica;fontSize=11;fontColor=default;endArrow=none;endFill=0;" parent="1" source="h148b_-GxsQM1g3IfF08-51" target="h148b_-GxsQM1g3IfF08-42" edge="1">
          <mxGeometry relative="1" as="geometry" />
        </mxCell>
        <mxCell id="h148b_-GxsQM1g3IfF08-51" value="SUPPLY" style="shape=rhombus;perimeter=rhombusPerimeter;whiteSpace=wrap;html=1;align=center;rounded=1;fontFamily=Helvetica;fontSize=11;fontColor=default;" parent="1" vertex="1">
          <mxGeometry x="320" y="150" width="120" height="60" as="geometry" />
        </mxCell>
        <mxCell id="h148b_-GxsQM1g3IfF08-56" value="(1,1)" style="text;html=1;align=center;verticalAlign=middle;resizable=0;points=[];autosize=1;strokeColor=none;fillColor=none;fontSize=11;fontFamily=Helvetica;fontColor=default;rounded=1;" parent="1" vertex="1">
          <mxGeometry x="380" y="210" width="50" height="30" as="geometry" />
        </mxCell>
        <mxCell id="h148b_-GxsQM1g3IfF08-57" value="(1,N)" style="text;html=1;align=center;verticalAlign=middle;resizable=0;points=[];autosize=1;strokeColor=none;fillColor=none;fontSize=11;fontFamily=Helvetica;fontColor=default;rounded=1;" parent="1" vertex="1">
          <mxGeometry x="380" y="120" width="50" height="30" as="geometry" />
        </mxCell>
        <mxCell id="h148b_-GxsQM1g3IfF08-66" value="" style="edgeStyle=orthogonalEdgeStyle;shape=connector;rounded=1;orthogonalLoop=1;jettySize=auto;html=1;labelBackgroundColor=default;strokeColor=default;align=center;verticalAlign=middle;fontFamily=Helvetica;fontSize=11;fontColor=default;endArrow=none;endFill=0;" parent="1" source="h148b_-GxsQM1g3IfF08-64" target="h148b_-GxsQM1g3IfF08-65" edge="1">
          <mxGeometry relative="1" as="geometry" />
        </mxCell>
        <mxCell id="h148b_-GxsQM1g3IfF08-71" style="edgeStyle=orthogonalEdgeStyle;shape=connector;rounded=1;orthogonalLoop=1;jettySize=auto;html=1;exitX=0.75;exitY=1;exitDx=0;exitDy=0;entryX=0;entryY=0.5;entryDx=0;entryDy=0;labelBackgroundColor=default;strokeColor=default;align=center;verticalAlign=middle;fontFamily=Helvetica;fontSize=11;fontColor=default;endArrow=none;endFill=0;" parent="1" source="h148b_-GxsQM1g3IfF08-64" target="h148b_-GxsQM1g3IfF08-70" edge="1">
          <mxGeometry relative="1" as="geometry" />
        </mxCell>
        <mxCell id="h148b_-GxsQM1g3IfF08-74" style="edgeStyle=orthogonalEdgeStyle;shape=connector;rounded=1;orthogonalLoop=1;jettySize=auto;html=1;exitX=0;exitY=0.5;exitDx=0;exitDy=0;entryX=0.5;entryY=0;entryDx=0;entryDy=0;labelBackgroundColor=default;strokeColor=default;align=center;verticalAlign=middle;fontFamily=Helvetica;fontSize=11;fontColor=default;endArrow=none;endFill=0;" parent="1" source="h148b_-GxsQM1g3IfF08-64" target="h148b_-GxsQM1g3IfF08-73" edge="1">
          <mxGeometry relative="1" as="geometry" />
        </mxCell>
        <mxCell id="h148b_-GxsQM1g3IfF08-64" value="RECEIPT" style="whiteSpace=wrap;html=1;align=center;rounded=1;" parent="1" vertex="1">
          <mxGeometry x="40" y="290" width="100" height="40" as="geometry" />
        </mxCell>
        <mxCell id="h148b_-GxsQM1g3IfF08-65" value="RECORD" style="shape=rhombus;perimeter=rhombusPerimeter;whiteSpace=wrap;html=1;align=center;rounded=1;fontFamily=Helvetica;fontSize=11;fontColor=default;" parent="1" vertex="1">
          <mxGeometry x="240" y="280" width="120" height="60" as="geometry" />
        </mxCell>
        <mxCell id="h148b_-GxsQM1g3IfF08-70" value="Description" style="ellipse;whiteSpace=wrap;html=1;align=center;rounded=1;" parent="1" vertex="1">
          <mxGeometry x="140" y="350" width="100" height="40" as="geometry" />
        </mxCell>
        <mxCell id="h148b_-GxsQM1g3IfF08-99" style="edgeStyle=orthogonalEdgeStyle;shape=connector;rounded=1;orthogonalLoop=1;jettySize=auto;html=1;exitX=1;exitY=0.5;exitDx=0;exitDy=0;entryX=1;entryY=0.5;entryDx=0;entryDy=0;labelBackgroundColor=default;strokeColor=default;align=center;verticalAlign=middle;fontFamily=Helvetica;fontSize=11;fontColor=default;endArrow=none;endFill=0;" parent="1" source="h148b_-GxsQM1g3IfF08-72" target="h148b_-GxsQM1g3IfF08-97" edge="1">
          <mxGeometry relative="1" as="geometry" />
        </mxCell>
        <mxCell id="h148b_-GxsQM1g3IfF08-100" style="edgeStyle=orthogonalEdgeStyle;shape=connector;rounded=1;orthogonalLoop=1;jettySize=auto;html=1;exitX=1;exitY=0.5;exitDx=0;exitDy=0;entryX=1;entryY=0.5;entryDx=0;entryDy=0;labelBackgroundColor=default;strokeColor=default;align=center;verticalAlign=middle;fontFamily=Helvetica;fontSize=11;fontColor=default;endArrow=none;endFill=0;" parent="1" source="h148b_-GxsQM1g3IfF08-72" target="h148b_-GxsQM1g3IfF08-98" edge="1">
          <mxGeometry relative="1" as="geometry" />
        </mxCell>
        <mxCell id="h148b_-GxsQM1g3IfF08-72" value="LIST_RECEIPT" style="whiteSpace=wrap;html=1;align=center;rounded=1;" parent="1" vertex="1">
          <mxGeometry x="40" y="470" width="100" height="40" as="geometry" />
        </mxCell>
        <mxCell id="h148b_-GxsQM1g3IfF08-75" style="edgeStyle=orthogonalEdgeStyle;shape=connector;rounded=1;orthogonalLoop=1;jettySize=auto;html=1;exitX=0.5;exitY=1;exitDx=0;exitDy=0;entryX=0;entryY=0.5;entryDx=0;entryDy=0;labelBackgroundColor=default;strokeColor=default;align=center;verticalAlign=middle;fontFamily=Helvetica;fontSize=11;fontColor=default;endArrow=none;endFill=0;" parent="1" source="h148b_-GxsQM1g3IfF08-73" target="h148b_-GxsQM1g3IfF08-72" edge="1">
          <mxGeometry relative="1" as="geometry" />
        </mxCell>
        <mxCell id="h148b_-GxsQM1g3IfF08-73" value="RECORDED" style="shape=rhombus;perimeter=rhombusPerimeter;whiteSpace=wrap;html=1;align=center;rounded=1;fontFamily=Helvetica;fontSize=11;fontColor=default;" parent="1" vertex="1">
          <mxGeometry x="-140" y="370" width="120" height="60" as="geometry" />
        </mxCell>
        <mxCell id="h148b_-GxsQM1g3IfF08-76" value="(0,N)" style="text;html=1;align=center;verticalAlign=middle;resizable=0;points=[];autosize=1;strokeColor=none;fillColor=none;fontSize=11;fontFamily=Helvetica;fontColor=default;rounded=1;" parent="1" vertex="1">
          <mxGeometry x="340" y="320" width="50" height="30" as="geometry" />
        </mxCell>
        <mxCell id="h148b_-GxsQM1g3IfF08-77" value="(1,N)" style="text;html=1;align=center;verticalAlign=middle;resizable=0;points=[];autosize=1;strokeColor=none;fillColor=none;fontSize=11;fontFamily=Helvetica;fontColor=default;rounded=1;" parent="1" vertex="1">
          <mxGeometry x="200" y="280" width="50" height="30" as="geometry" />
        </mxCell>
        <mxCell id="h148b_-GxsQM1g3IfF08-78" value="(1,1)" style="text;html=1;align=center;verticalAlign=middle;resizable=0;points=[];autosize=1;strokeColor=none;fillColor=none;fontSize=11;fontFamily=Helvetica;fontColor=default;rounded=1;" parent="1" vertex="1">
          <mxGeometry x="-80" y="350" width="50" height="30" as="geometry" />
        </mxCell>
        <mxCell id="h148b_-GxsQM1g3IfF08-79" value="(1,N)" style="text;html=1;align=center;verticalAlign=middle;resizable=0;points=[];autosize=1;strokeColor=none;fillColor=none;fontSize=11;fontFamily=Helvetica;fontColor=default;rounded=1;" parent="1" vertex="1">
          <mxGeometry x="-80" y="420" width="50" height="30" as="geometry" />
        </mxCell>
        <mxCell id="h148b_-GxsQM1g3IfF08-83" style="edgeStyle=orthogonalEdgeStyle;shape=connector;rounded=1;orthogonalLoop=1;jettySize=auto;html=1;exitX=0.5;exitY=1;exitDx=0;exitDy=0;entryX=0;entryY=0.5;entryDx=0;entryDy=0;labelBackgroundColor=default;strokeColor=default;align=center;verticalAlign=middle;fontFamily=Helvetica;fontSize=11;fontColor=default;endArrow=none;endFill=0;" parent="1" source="h148b_-GxsQM1g3IfF08-81" target="h148b_-GxsQM1g3IfF08-72" edge="1">
          <mxGeometry relative="1" as="geometry" />
        </mxCell>
        <mxCell id="h148b_-GxsQM1g3IfF08-81" value="CREATE" style="shape=rhombus;perimeter=rhombusPerimeter;whiteSpace=wrap;html=1;align=center;rounded=1;fontFamily=Helvetica;fontSize=11;fontColor=default;" parent="1" vertex="1">
          <mxGeometry x="-230" y="230" width="120" height="60" as="geometry" />
        </mxCell>
        <mxCell id="h148b_-GxsQM1g3IfF08-84" value="(1,1)" style="text;html=1;align=center;verticalAlign=middle;resizable=0;points=[];autosize=1;strokeColor=none;fillColor=none;fontSize=11;fontFamily=Helvetica;fontColor=default;rounded=1;" parent="1" vertex="1">
          <mxGeometry x="-220" y="285" width="50" height="30" as="geometry" />
        </mxCell>
        <mxCell id="h148b_-GxsQM1g3IfF08-85" value="(1,N)" style="text;html=1;align=center;verticalAlign=middle;resizable=0;points=[];autosize=1;strokeColor=none;fillColor=none;fontSize=11;fontFamily=Helvetica;fontColor=default;rounded=1;" parent="1" vertex="1">
          <mxGeometry x="-170" y="200" width="50" height="30" as="geometry" />
        </mxCell>
        <mxCell id="h148b_-GxsQM1g3IfF08-91" style="edgeStyle=orthogonalEdgeStyle;shape=connector;rounded=1;orthogonalLoop=1;jettySize=auto;html=1;exitX=0.5;exitY=1;exitDx=0;exitDy=0;entryX=0;entryY=0;entryDx=0;entryDy=0;labelBackgroundColor=default;strokeColor=default;align=center;verticalAlign=middle;fontFamily=Helvetica;fontSize=11;fontColor=default;endArrow=none;endFill=0;" parent="1" source="h148b_-GxsQM1g3IfF08-89" target="h148b_-GxsQM1g3IfF08-1" edge="1">
          <mxGeometry relative="1" as="geometry" />
        </mxCell>
        <mxCell id="h148b_-GxsQM1g3IfF08-89" value="SUPERVISE" style="shape=rhombus;perimeter=rhombusPerimeter;whiteSpace=wrap;html=1;align=center;rounded=1;fontFamily=Helvetica;fontSize=11;fontColor=default;" parent="1" vertex="1">
          <mxGeometry x="-230" y="-110" width="120" height="60" as="geometry" />
        </mxCell>
        <mxCell id="h148b_-GxsQM1g3IfF08-93" value="supervisor" style="text;html=1;align=center;verticalAlign=middle;resizable=0;points=[];autosize=1;strokeColor=none;fillColor=none;fontSize=11;fontFamily=Helvetica;fontColor=default;rounded=1;" parent="1" vertex="1">
          <mxGeometry x="-30" y="-10" width="70" height="30" as="geometry" />
        </mxCell>
        <mxCell id="h148b_-GxsQM1g3IfF08-94" value="supervised" style="text;html=1;align=center;verticalAlign=middle;resizable=0;points=[];autosize=1;strokeColor=none;fillColor=none;fontSize=11;fontFamily=Helvetica;fontColor=default;rounded=1;" parent="1" vertex="1">
          <mxGeometry x="-10" y="-110" width="80" height="30" as="geometry" />
        </mxCell>
        <mxCell id="h148b_-GxsQM1g3IfF08-95" value="(1,N)" style="text;html=1;align=center;verticalAlign=middle;resizable=0;points=[];autosize=1;strokeColor=none;fillColor=none;fontSize=11;fontFamily=Helvetica;fontColor=default;rounded=1;" parent="1" vertex="1">
          <mxGeometry x="-220" y="-60" width="50" height="30" as="geometry" />
        </mxCell>
        <mxCell id="h148b_-GxsQM1g3IfF08-96" value="(1,1)" style="text;html=1;align=center;verticalAlign=middle;resizable=0;points=[];autosize=1;strokeColor=none;fillColor=none;fontSize=11;fontFamily=Helvetica;fontColor=default;rounded=1;" parent="1" vertex="1">
          <mxGeometry x="-130" y="-110" width="50" height="30" as="geometry" />
        </mxCell>
        <mxCell id="h148b_-GxsQM1g3IfF08-97" value="Type" style="ellipse;whiteSpace=wrap;html=1;align=center;rounded=1;" parent="1" vertex="1">
          <mxGeometry x="40" y="530" width="100" height="40" as="geometry" />
        </mxCell>
        <mxCell id="h148b_-GxsQM1g3IfF08-98" value="Calculate_price" style="ellipse;whiteSpace=wrap;html=1;align=center;rounded=1;" parent="1" vertex="1">
          <mxGeometry x="40" y="585" width="100" height="40" as="geometry" />
        </mxCell>
        <mxCell id="Sy45V-IsQZUDsXAF__9u-8" style="edgeStyle=orthogonalEdgeStyle;rounded=1;orthogonalLoop=1;jettySize=auto;html=1;exitX=1;exitY=0.5;exitDx=0;exitDy=0;entryX=1;entryY=0.5;entryDx=0;entryDy=0;endArrow=none;endFill=0;" edge="1" parent="1" source="Sy45V-IsQZUDsXAF__9u-1" target="Sy45V-IsQZUDsXAF__9u-2">
          <mxGeometry relative="1" as="geometry" />
        </mxCell>
        <mxCell id="Sy45V-IsQZUDsXAF__9u-9" style="edgeStyle=orthogonalEdgeStyle;shape=connector;rounded=1;orthogonalLoop=1;jettySize=auto;html=1;exitX=1;exitY=0.5;exitDx=0;exitDy=0;entryX=1;entryY=0.5;entryDx=0;entryDy=0;labelBackgroundColor=default;strokeColor=default;align=center;verticalAlign=middle;fontFamily=Helvetica;fontSize=11;fontColor=default;endArrow=none;endFill=0;" edge="1" parent="1" source="Sy45V-IsQZUDsXAF__9u-1" target="Sy45V-IsQZUDsXAF__9u-5">
          <mxGeometry relative="1" as="geometry" />
        </mxCell>
        <mxCell id="Sy45V-IsQZUDsXAF__9u-10" style="edgeStyle=orthogonalEdgeStyle;shape=connector;rounded=1;orthogonalLoop=1;jettySize=auto;html=1;exitX=1;exitY=0.5;exitDx=0;exitDy=0;entryX=1;entryY=0.5;entryDx=0;entryDy=0;labelBackgroundColor=default;strokeColor=default;align=center;verticalAlign=middle;fontFamily=Helvetica;fontSize=11;fontColor=default;endArrow=none;endFill=0;" edge="1" parent="1" source="Sy45V-IsQZUDsXAF__9u-1" target="Sy45V-IsQZUDsXAF__9u-7">
          <mxGeometry relative="1" as="geometry" />
        </mxCell>
        <mxCell id="Sy45V-IsQZUDsXAF__9u-1" value="BRAND" style="whiteSpace=wrap;html=1;align=center;rounded=1;" vertex="1" parent="1">
          <mxGeometry x="850" y="165" width="100" height="40" as="geometry" />
        </mxCell>
        <mxCell id="Sy45V-IsQZUDsXAF__9u-2" value="Name" style="ellipse;whiteSpace=wrap;html=1;align=center;rounded=1;" vertex="1" parent="1">
          <mxGeometry x="850" y="215" width="100" height="40" as="geometry" />
        </mxCell>
        <mxCell id="Sy45V-IsQZUDsXAF__9u-5" value="Type" style="ellipse;whiteSpace=wrap;html=1;align=center;rounded=1;" vertex="1" parent="1">
          <mxGeometry x="850" y="265" width="100" height="40" as="geometry" />
        </mxCell>
        <mxCell id="Sy45V-IsQZUDsXAF__9u-7" value="Description" style="ellipse;whiteSpace=wrap;html=1;align=center;rounded=1;" vertex="1" parent="1">
          <mxGeometry x="850" y="315" width="100" height="40" as="geometry" />
        </mxCell>
        <mxCell id="Sy45V-IsQZUDsXAF__9u-13" style="edgeStyle=orthogonalEdgeStyle;shape=connector;rounded=1;orthogonalLoop=1;jettySize=auto;html=1;exitX=1;exitY=0.5;exitDx=0;exitDy=0;entryX=0;entryY=0.5;entryDx=0;entryDy=0;labelBackgroundColor=default;strokeColor=default;align=center;verticalAlign=middle;fontFamily=Helvetica;fontSize=11;fontColor=default;endArrow=none;endFill=0;" edge="1" parent="1" source="Sy45V-IsQZUDsXAF__9u-11" target="Sy45V-IsQZUDsXAF__9u-1">
          <mxGeometry relative="1" as="geometry" />
        </mxCell>
        <mxCell id="Sy45V-IsQZUDsXAF__9u-11" value="MANAGE" style="shape=rhombus;perimeter=rhombusPerimeter;whiteSpace=wrap;html=1;align=center;rounded=1;fontFamily=Helvetica;fontSize=11;fontColor=default;" vertex="1" parent="1">
          <mxGeometry x="630" y="90" width="120" height="60" as="geometry" />
        </mxCell>
        <mxCell id="Sy45V-IsQZUDsXAF__9u-15" style="edgeStyle=orthogonalEdgeStyle;shape=connector;rounded=1;orthogonalLoop=1;jettySize=auto;html=1;exitX=1;exitY=0.5;exitDx=0;exitDy=0;entryX=0;entryY=0.5;entryDx=0;entryDy=0;labelBackgroundColor=default;strokeColor=default;align=center;verticalAlign=middle;fontFamily=Helvetica;fontSize=11;fontColor=default;endArrow=none;endFill=0;" edge="1" parent="1" source="Sy45V-IsQZUDsXAF__9u-14" target="Sy45V-IsQZUDsXAF__9u-1">
          <mxGeometry relative="1" as="geometry" />
        </mxCell>
        <mxCell id="Sy45V-IsQZUDsXAF__9u-14" value="BELONG" style="shape=rhombus;perimeter=rhombusPerimeter;whiteSpace=wrap;html=1;align=center;rounded=1;fontFamily=Helvetica;fontSize=11;fontColor=default;" vertex="1" parent="1">
          <mxGeometry x="630" y="220" width="120" height="60" as="geometry" />
        </mxCell>
        <mxCell id="Sy45V-IsQZUDsXAF__9u-18" value="(1,N)" style="text;html=1;align=center;verticalAlign=middle;resizable=0;points=[];autosize=1;strokeColor=none;fillColor=none;fontSize=11;fontFamily=Helvetica;fontColor=default;rounded=1;" vertex="1" parent="1">
          <mxGeometry x="590" y="120" width="50" height="30" as="geometry" />
        </mxCell>
        <mxCell id="Sy45V-IsQZUDsXAF__9u-19" value="(1,N)" style="text;html=1;align=center;verticalAlign=middle;resizable=0;points=[];autosize=1;strokeColor=none;fillColor=none;fontSize=11;fontFamily=Helvetica;fontColor=default;rounded=1;" vertex="1" parent="1">
          <mxGeometry x="740" y="120" width="50" height="30" as="geometry" />
        </mxCell>
        <mxCell id="Sy45V-IsQZUDsXAF__9u-20" value="(1,1)" style="text;html=1;align=center;verticalAlign=middle;resizable=0;points=[];autosize=1;strokeColor=none;fillColor=none;fontSize=11;fontFamily=Helvetica;fontColor=default;rounded=1;" vertex="1" parent="1">
          <mxGeometry x="595" y="220" width="50" height="30" as="geometry" />
        </mxCell>
        <mxCell id="Sy45V-IsQZUDsXAF__9u-21" value="(1,N)" style="text;html=1;align=center;verticalAlign=middle;resizable=0;points=[];autosize=1;strokeColor=none;fillColor=none;fontSize=11;fontFamily=Helvetica;fontColor=default;rounded=1;" vertex="1" parent="1">
          <mxGeometry x="740" y="220" width="50" height="30" as="geometry" />
        </mxCell>
      </root>
    </mxGraphModel>
  </diagram>
  <diagram id="tyjmVtFe_AGc7zjfJh5I" name="MR">
    <mxGraphModel dx="864" dy="1725" grid="1" gridSize="10" guides="1" tooltips="1" connect="1" arrows="1" fold="1" page="1" pageScale="1" pageWidth="827" pageHeight="1169" math="0" shadow="0">
      <root>
        <mxCell id="0" />
        <mxCell id="1" parent="0" />
        <mxCell id="hceHCTH_wV2WiIxm6XiZ-4" style="edgeStyle=orthogonalEdgeStyle;shape=connector;rounded=1;orthogonalLoop=1;jettySize=auto;html=1;exitX=0;exitY=0.5;exitDx=0;exitDy=0;entryX=0;entryY=0.5;entryDx=0;entryDy=0;labelBackgroundColor=default;strokeColor=default;align=center;verticalAlign=middle;fontFamily=Helvetica;fontSize=11;fontColor=default;endArrow=classic;endFill=1;" edge="1" parent="1" source="fpJjtlsTc72fFMMwaWcc-8" target="hceHCTH_wV2WiIxm6XiZ-1">
          <mxGeometry relative="1" as="geometry" />
        </mxCell>
        <mxCell id="5Q8vQh_4Me6d6GsNLmm--1" value="SUPPLIER" style="shape=table;startSize=30;container=1;collapsible=1;childLayout=tableLayout;fixedRows=1;rowLines=0;fontStyle=1;align=center;resizeLast=1;html=1;rounded=1;fontFamily=Helvetica;fontSize=11;fontColor=default;" parent="1" vertex="1">
          <mxGeometry x="35" y="-90" width="190" height="210" as="geometry" />
        </mxCell>
        <mxCell id="5Q8vQh_4Me6d6GsNLmm--2" value="" style="shape=tableRow;horizontal=0;startSize=0;swimlaneHead=0;swimlaneBody=0;fillColor=none;collapsible=0;dropTarget=0;points=[[0,0.5],[1,0.5]];portConstraint=eastwest;top=0;left=0;right=0;bottom=1;rounded=1;fontFamily=Helvetica;fontSize=11;fontColor=default;" parent="5Q8vQh_4Me6d6GsNLmm--1" vertex="1">
          <mxGeometry y="30" width="190" height="30" as="geometry" />
        </mxCell>
        <mxCell id="5Q8vQh_4Me6d6GsNLmm--3" value="PK" style="shape=partialRectangle;connectable=0;fillColor=none;top=0;left=0;bottom=0;right=0;fontStyle=1;overflow=hidden;whiteSpace=wrap;html=1;rounded=1;fontFamily=Helvetica;fontSize=11;fontColor=default;" parent="5Q8vQh_4Me6d6GsNLmm--2" vertex="1">
          <mxGeometry width="30" height="30" as="geometry">
            <mxRectangle width="30" height="30" as="alternateBounds" />
          </mxGeometry>
        </mxCell>
        <mxCell id="5Q8vQh_4Me6d6GsNLmm--4" value="ID : (INT)" style="shape=partialRectangle;connectable=0;fillColor=none;top=0;left=0;bottom=0;right=0;align=left;spacingLeft=6;fontStyle=5;overflow=hidden;whiteSpace=wrap;html=1;rounded=1;fontFamily=Helvetica;fontSize=11;fontColor=default;" parent="5Q8vQh_4Me6d6GsNLmm--2" vertex="1">
          <mxGeometry x="30" width="160" height="30" as="geometry">
            <mxRectangle width="160" height="30" as="alternateBounds" />
          </mxGeometry>
        </mxCell>
        <mxCell id="5Q8vQh_4Me6d6GsNLmm--5" value="" style="shape=tableRow;horizontal=0;startSize=0;swimlaneHead=0;swimlaneBody=0;fillColor=none;collapsible=0;dropTarget=0;points=[[0,0.5],[1,0.5]];portConstraint=eastwest;top=0;left=0;right=0;bottom=0;rounded=1;fontFamily=Helvetica;fontSize=11;fontColor=default;" parent="5Q8vQh_4Me6d6GsNLmm--1" vertex="1">
          <mxGeometry y="60" width="190" height="30" as="geometry" />
        </mxCell>
        <mxCell id="5Q8vQh_4Me6d6GsNLmm--6" value="" style="shape=partialRectangle;connectable=0;fillColor=none;top=0;left=0;bottom=0;right=0;editable=1;overflow=hidden;whiteSpace=wrap;html=1;rounded=1;fontFamily=Helvetica;fontSize=11;fontColor=default;" parent="5Q8vQh_4Me6d6GsNLmm--5" vertex="1">
          <mxGeometry width="30" height="30" as="geometry">
            <mxRectangle width="30" height="30" as="alternateBounds" />
          </mxGeometry>
        </mxCell>
        <mxCell id="5Q8vQh_4Me6d6GsNLmm--7" value="Type : (VARCHAR)" style="shape=partialRectangle;connectable=0;fillColor=none;top=0;left=0;bottom=0;right=0;align=left;spacingLeft=6;overflow=hidden;whiteSpace=wrap;html=1;rounded=1;fontFamily=Helvetica;fontSize=11;fontColor=default;" parent="5Q8vQh_4Me6d6GsNLmm--5" vertex="1">
          <mxGeometry x="30" width="160" height="30" as="geometry">
            <mxRectangle width="160" height="30" as="alternateBounds" />
          </mxGeometry>
        </mxCell>
        <mxCell id="HP_GVY7HACIwxMaiQJ_H-4" value="" style="shape=tableRow;horizontal=0;startSize=0;swimlaneHead=0;swimlaneBody=0;fillColor=none;collapsible=0;dropTarget=0;points=[[0,0.5],[1,0.5]];portConstraint=eastwest;top=0;left=0;right=0;bottom=0;rounded=1;fontFamily=Helvetica;fontSize=11;fontColor=default;" vertex="1" parent="5Q8vQh_4Me6d6GsNLmm--1">
          <mxGeometry y="90" width="190" height="30" as="geometry" />
        </mxCell>
        <mxCell id="HP_GVY7HACIwxMaiQJ_H-5" value="" style="shape=partialRectangle;connectable=0;fillColor=none;top=0;left=0;bottom=0;right=0;editable=1;overflow=hidden;whiteSpace=wrap;html=1;rounded=1;fontFamily=Helvetica;fontSize=11;fontColor=default;" vertex="1" parent="HP_GVY7HACIwxMaiQJ_H-4">
          <mxGeometry width="30" height="30" as="geometry">
            <mxRectangle width="30" height="30" as="alternateBounds" />
          </mxGeometry>
        </mxCell>
        <mxCell id="HP_GVY7HACIwxMaiQJ_H-6" value="Name : (VARCHAR)" style="shape=partialRectangle;connectable=0;fillColor=none;top=0;left=0;bottom=0;right=0;align=left;spacingLeft=6;overflow=hidden;whiteSpace=wrap;html=1;rounded=1;fontFamily=Helvetica;fontSize=11;fontColor=default;" vertex="1" parent="HP_GVY7HACIwxMaiQJ_H-4">
          <mxGeometry x="30" width="160" height="30" as="geometry">
            <mxRectangle width="160" height="30" as="alternateBounds" />
          </mxGeometry>
        </mxCell>
        <mxCell id="C7fBxZL7bQZOO6h78Z95-1" value="" style="shape=tableRow;horizontal=0;startSize=0;swimlaneHead=0;swimlaneBody=0;fillColor=none;collapsible=0;dropTarget=0;points=[[0,0.5],[1,0.5]];portConstraint=eastwest;top=0;left=0;right=0;bottom=0;rounded=1;fontFamily=Helvetica;fontSize=11;fontColor=default;" vertex="1" parent="5Q8vQh_4Me6d6GsNLmm--1">
          <mxGeometry y="120" width="190" height="30" as="geometry" />
        </mxCell>
        <mxCell id="C7fBxZL7bQZOO6h78Z95-2" value="" style="shape=partialRectangle;connectable=0;fillColor=none;top=0;left=0;bottom=0;right=0;editable=1;overflow=hidden;whiteSpace=wrap;html=1;rounded=1;fontFamily=Helvetica;fontSize=11;fontColor=default;" vertex="1" parent="C7fBxZL7bQZOO6h78Z95-1">
          <mxGeometry width="30" height="30" as="geometry">
            <mxRectangle width="30" height="30" as="alternateBounds" />
          </mxGeometry>
        </mxCell>
        <mxCell id="C7fBxZL7bQZOO6h78Z95-3" value="Lastname : (VARCHAR)" style="shape=partialRectangle;connectable=0;fillColor=none;top=0;left=0;bottom=0;right=0;align=left;spacingLeft=6;overflow=hidden;whiteSpace=wrap;html=1;rounded=1;fontFamily=Helvetica;fontSize=11;fontColor=default;" vertex="1" parent="C7fBxZL7bQZOO6h78Z95-1">
          <mxGeometry x="30" width="160" height="30" as="geometry">
            <mxRectangle width="160" height="30" as="alternateBounds" />
          </mxGeometry>
        </mxCell>
        <mxCell id="fpJjtlsTc72fFMMwaWcc-1" value="" style="shape=tableRow;horizontal=0;startSize=0;swimlaneHead=0;swimlaneBody=0;fillColor=none;collapsible=0;dropTarget=0;points=[[0,0.5],[1,0.5]];portConstraint=eastwest;top=0;left=0;right=0;bottom=0;rounded=1;fontFamily=Helvetica;fontSize=11;fontColor=default;" vertex="1" parent="5Q8vQh_4Me6d6GsNLmm--1">
          <mxGeometry y="150" width="190" height="30" as="geometry" />
        </mxCell>
        <mxCell id="fpJjtlsTc72fFMMwaWcc-2" value="" style="shape=partialRectangle;connectable=0;fillColor=none;top=0;left=0;bottom=0;right=0;editable=1;overflow=hidden;whiteSpace=wrap;html=1;rounded=1;fontFamily=Helvetica;fontSize=11;fontColor=default;" vertex="1" parent="fpJjtlsTc72fFMMwaWcc-1">
          <mxGeometry width="30" height="30" as="geometry">
            <mxRectangle width="30" height="30" as="alternateBounds" />
          </mxGeometry>
        </mxCell>
        <mxCell id="fpJjtlsTc72fFMMwaWcc-3" value="Email : (VARCHAR)" style="shape=partialRectangle;connectable=0;fillColor=none;top=0;left=0;bottom=0;right=0;align=left;spacingLeft=6;overflow=hidden;whiteSpace=wrap;html=1;rounded=1;fontFamily=Helvetica;fontSize=11;fontColor=default;" vertex="1" parent="fpJjtlsTc72fFMMwaWcc-1">
          <mxGeometry x="30" width="160" height="30" as="geometry">
            <mxRectangle width="160" height="30" as="alternateBounds" />
          </mxGeometry>
        </mxCell>
        <mxCell id="fpJjtlsTc72fFMMwaWcc-4" value="" style="shape=tableRow;horizontal=0;startSize=0;swimlaneHead=0;swimlaneBody=0;fillColor=none;collapsible=0;dropTarget=0;points=[[0,0.5],[1,0.5]];portConstraint=eastwest;top=0;left=0;right=0;bottom=0;rounded=1;fontFamily=Helvetica;fontSize=11;fontColor=default;" vertex="1" parent="5Q8vQh_4Me6d6GsNLmm--1">
          <mxGeometry y="180" width="190" height="30" as="geometry" />
        </mxCell>
        <mxCell id="fpJjtlsTc72fFMMwaWcc-5" value="" style="shape=partialRectangle;connectable=0;fillColor=none;top=0;left=0;bottom=0;right=0;editable=1;overflow=hidden;whiteSpace=wrap;html=1;rounded=1;fontFamily=Helvetica;fontSize=11;fontColor=default;" vertex="1" parent="fpJjtlsTc72fFMMwaWcc-4">
          <mxGeometry width="30" height="30" as="geometry">
            <mxRectangle width="30" height="30" as="alternateBounds" />
          </mxGeometry>
        </mxCell>
        <mxCell id="fpJjtlsTc72fFMMwaWcc-6" value="Number_Phone: (VARCHAR)" style="shape=partialRectangle;connectable=0;fillColor=none;top=0;left=0;bottom=0;right=0;align=left;spacingLeft=6;overflow=hidden;whiteSpace=wrap;html=1;rounded=1;fontFamily=Helvetica;fontSize=11;fontColor=default;" vertex="1" parent="fpJjtlsTc72fFMMwaWcc-4">
          <mxGeometry x="30" width="160" height="30" as="geometry">
            <mxRectangle width="160" height="30" as="alternateBounds" />
          </mxGeometry>
        </mxCell>
        <mxCell id="2KjoCLtPw_2aBKYKVv6h-1" value="BRAND" style="shape=table;startSize=30;container=1;collapsible=1;childLayout=tableLayout;fixedRows=1;rowLines=0;fontStyle=1;align=center;resizeLast=1;html=1;rounded=1;fontFamily=Helvetica;fontSize=11;fontColor=default;" vertex="1" parent="1">
          <mxGeometry x="40" y="150" width="180" height="150" as="geometry" />
        </mxCell>
        <mxCell id="2KjoCLtPw_2aBKYKVv6h-2" value="" style="shape=tableRow;horizontal=0;startSize=0;swimlaneHead=0;swimlaneBody=0;fillColor=none;collapsible=0;dropTarget=0;points=[[0,0.5],[1,0.5]];portConstraint=eastwest;top=0;left=0;right=0;bottom=1;rounded=1;fontFamily=Helvetica;fontSize=11;fontColor=default;" vertex="1" parent="2KjoCLtPw_2aBKYKVv6h-1">
          <mxGeometry y="30" width="180" height="30" as="geometry" />
        </mxCell>
        <mxCell id="2KjoCLtPw_2aBKYKVv6h-3" value="PK" style="shape=partialRectangle;connectable=0;fillColor=none;top=0;left=0;bottom=0;right=0;fontStyle=1;overflow=hidden;whiteSpace=wrap;html=1;rounded=1;fontFamily=Helvetica;fontSize=11;fontColor=default;" vertex="1" parent="2KjoCLtPw_2aBKYKVv6h-2">
          <mxGeometry width="30" height="30" as="geometry">
            <mxRectangle width="30" height="30" as="alternateBounds" />
          </mxGeometry>
        </mxCell>
        <mxCell id="2KjoCLtPw_2aBKYKVv6h-4" value="ID : (INT)" style="shape=partialRectangle;connectable=0;fillColor=none;top=0;left=0;bottom=0;right=0;align=left;spacingLeft=6;fontStyle=5;overflow=hidden;whiteSpace=wrap;html=1;rounded=1;fontFamily=Helvetica;fontSize=11;fontColor=default;" vertex="1" parent="2KjoCLtPw_2aBKYKVv6h-2">
          <mxGeometry x="30" width="150" height="30" as="geometry">
            <mxRectangle width="150" height="30" as="alternateBounds" />
          </mxGeometry>
        </mxCell>
        <mxCell id="2KjoCLtPw_2aBKYKVv6h-5" value="" style="shape=tableRow;horizontal=0;startSize=0;swimlaneHead=0;swimlaneBody=0;fillColor=none;collapsible=0;dropTarget=0;points=[[0,0.5],[1,0.5]];portConstraint=eastwest;top=0;left=0;right=0;bottom=0;rounded=1;fontFamily=Helvetica;fontSize=11;fontColor=default;" vertex="1" parent="2KjoCLtPw_2aBKYKVv6h-1">
          <mxGeometry y="60" width="180" height="30" as="geometry" />
        </mxCell>
        <mxCell id="2KjoCLtPw_2aBKYKVv6h-6" value="" style="shape=partialRectangle;connectable=0;fillColor=none;top=0;left=0;bottom=0;right=0;editable=1;overflow=hidden;whiteSpace=wrap;html=1;rounded=1;fontFamily=Helvetica;fontSize=11;fontColor=default;" vertex="1" parent="2KjoCLtPw_2aBKYKVv6h-5">
          <mxGeometry width="30" height="30" as="geometry">
            <mxRectangle width="30" height="30" as="alternateBounds" />
          </mxGeometry>
        </mxCell>
        <mxCell id="2KjoCLtPw_2aBKYKVv6h-7" value="Name : (VARCHAR)" style="shape=partialRectangle;connectable=0;fillColor=none;top=0;left=0;bottom=0;right=0;align=left;spacingLeft=6;overflow=hidden;whiteSpace=wrap;html=1;rounded=1;fontFamily=Helvetica;fontSize=11;fontColor=default;" vertex="1" parent="2KjoCLtPw_2aBKYKVv6h-5">
          <mxGeometry x="30" width="150" height="30" as="geometry">
            <mxRectangle width="150" height="30" as="alternateBounds" />
          </mxGeometry>
        </mxCell>
        <mxCell id="WPlsleC5sIL5chfUbTBs-1" value="" style="shape=tableRow;horizontal=0;startSize=0;swimlaneHead=0;swimlaneBody=0;fillColor=none;collapsible=0;dropTarget=0;points=[[0,0.5],[1,0.5]];portConstraint=eastwest;top=0;left=0;right=0;bottom=0;rounded=1;fontFamily=Helvetica;fontSize=11;fontColor=default;" vertex="1" parent="2KjoCLtPw_2aBKYKVv6h-1">
          <mxGeometry y="90" width="180" height="30" as="geometry" />
        </mxCell>
        <mxCell id="WPlsleC5sIL5chfUbTBs-2" value="" style="shape=partialRectangle;connectable=0;fillColor=none;top=0;left=0;bottom=0;right=0;editable=1;overflow=hidden;whiteSpace=wrap;html=1;rounded=1;fontFamily=Helvetica;fontSize=11;fontColor=default;" vertex="1" parent="WPlsleC5sIL5chfUbTBs-1">
          <mxGeometry width="30" height="30" as="geometry">
            <mxRectangle width="30" height="30" as="alternateBounds" />
          </mxGeometry>
        </mxCell>
        <mxCell id="WPlsleC5sIL5chfUbTBs-3" value="Type : (VARCHAR)" style="shape=partialRectangle;connectable=0;fillColor=none;top=0;left=0;bottom=0;right=0;align=left;spacingLeft=6;overflow=hidden;whiteSpace=wrap;html=1;rounded=1;fontFamily=Helvetica;fontSize=11;fontColor=default;" vertex="1" parent="WPlsleC5sIL5chfUbTBs-1">
          <mxGeometry x="30" width="150" height="30" as="geometry">
            <mxRectangle width="150" height="30" as="alternateBounds" />
          </mxGeometry>
        </mxCell>
        <mxCell id="WPlsleC5sIL5chfUbTBs-4" value="" style="shape=tableRow;horizontal=0;startSize=0;swimlaneHead=0;swimlaneBody=0;fillColor=none;collapsible=0;dropTarget=0;points=[[0,0.5],[1,0.5]];portConstraint=eastwest;top=0;left=0;right=0;bottom=0;rounded=1;fontFamily=Helvetica;fontSize=11;fontColor=default;" vertex="1" parent="2KjoCLtPw_2aBKYKVv6h-1">
          <mxGeometry y="120" width="180" height="30" as="geometry" />
        </mxCell>
        <mxCell id="WPlsleC5sIL5chfUbTBs-5" value="" style="shape=partialRectangle;connectable=0;fillColor=none;top=0;left=0;bottom=0;right=0;editable=1;overflow=hidden;whiteSpace=wrap;html=1;rounded=1;fontFamily=Helvetica;fontSize=11;fontColor=default;" vertex="1" parent="WPlsleC5sIL5chfUbTBs-4">
          <mxGeometry width="30" height="30" as="geometry">
            <mxRectangle width="30" height="30" as="alternateBounds" />
          </mxGeometry>
        </mxCell>
        <mxCell id="WPlsleC5sIL5chfUbTBs-6" value="Description : (VARCHAR)" style="shape=partialRectangle;connectable=0;fillColor=none;top=0;left=0;bottom=0;right=0;align=left;spacingLeft=6;overflow=hidden;whiteSpace=wrap;html=1;rounded=1;fontFamily=Helvetica;fontSize=11;fontColor=default;" vertex="1" parent="WPlsleC5sIL5chfUbTBs-4">
          <mxGeometry x="30" width="150" height="30" as="geometry">
            <mxRectangle width="150" height="30" as="alternateBounds" />
          </mxGeometry>
        </mxCell>
        <mxCell id="lLkISHDWnRTiTxU_9IDE-1" value="SUPPLIER_X_BRAND" style="shape=table;startSize=30;container=1;collapsible=1;childLayout=tableLayout;fixedRows=1;rowLines=0;fontStyle=1;align=center;resizeLast=1;html=1;rounded=1;fontFamily=Helvetica;fontSize=11;fontColor=default;" vertex="1" parent="1">
          <mxGeometry x="324" y="20" width="180" height="90" as="geometry" />
        </mxCell>
        <mxCell id="lLkISHDWnRTiTxU_9IDE-2" value="" style="shape=tableRow;horizontal=0;startSize=0;swimlaneHead=0;swimlaneBody=0;fillColor=none;collapsible=0;dropTarget=0;points=[[0,0.5],[1,0.5]];portConstraint=eastwest;top=0;left=0;right=0;bottom=1;rounded=1;fontFamily=Helvetica;fontSize=11;fontColor=default;" vertex="1" parent="lLkISHDWnRTiTxU_9IDE-1">
          <mxGeometry y="30" width="180" height="30" as="geometry" />
        </mxCell>
        <mxCell id="lLkISHDWnRTiTxU_9IDE-3" value="FK, PK" style="shape=partialRectangle;connectable=0;fillColor=none;top=0;left=0;bottom=0;right=0;fontStyle=1;overflow=hidden;whiteSpace=wrap;html=1;rounded=1;fontFamily=Helvetica;fontSize=11;fontColor=default;" vertex="1" parent="lLkISHDWnRTiTxU_9IDE-2">
          <mxGeometry width="30" height="30" as="geometry">
            <mxRectangle width="30" height="30" as="alternateBounds" />
          </mxGeometry>
        </mxCell>
        <mxCell id="lLkISHDWnRTiTxU_9IDE-4" value="ID_Supplier: (INT)" style="shape=partialRectangle;connectable=0;fillColor=none;top=0;left=0;bottom=0;right=0;align=left;spacingLeft=6;fontStyle=5;overflow=hidden;whiteSpace=wrap;html=1;rounded=1;fontFamily=Helvetica;fontSize=11;fontColor=default;" vertex="1" parent="lLkISHDWnRTiTxU_9IDE-2">
          <mxGeometry x="30" width="150" height="30" as="geometry">
            <mxRectangle width="150" height="30" as="alternateBounds" />
          </mxGeometry>
        </mxCell>
        <mxCell id="lLkISHDWnRTiTxU_9IDE-5" value="" style="shape=tableRow;horizontal=0;startSize=0;swimlaneHead=0;swimlaneBody=0;fillColor=none;collapsible=0;dropTarget=0;points=[[0,0.5],[1,0.5]];portConstraint=eastwest;top=0;left=0;right=0;bottom=0;rounded=1;fontFamily=Helvetica;fontSize=11;fontColor=default;" vertex="1" parent="lLkISHDWnRTiTxU_9IDE-1">
          <mxGeometry y="60" width="180" height="30" as="geometry" />
        </mxCell>
        <mxCell id="lLkISHDWnRTiTxU_9IDE-6" value="FK, PK" style="shape=partialRectangle;connectable=0;fillColor=none;top=0;left=0;bottom=0;right=0;editable=1;overflow=hidden;whiteSpace=wrap;html=1;rounded=1;fontFamily=Helvetica;fontSize=11;fontColor=default;" vertex="1" parent="lLkISHDWnRTiTxU_9IDE-5">
          <mxGeometry width="30" height="30" as="geometry">
            <mxRectangle width="30" height="30" as="alternateBounds" />
          </mxGeometry>
        </mxCell>
        <mxCell id="lLkISHDWnRTiTxU_9IDE-7" value="&lt;u&gt;ID_Brand : (INT)&lt;/u&gt;" style="shape=partialRectangle;connectable=0;fillColor=none;top=0;left=0;bottom=0;right=0;align=left;spacingLeft=6;overflow=hidden;whiteSpace=wrap;html=1;rounded=1;fontFamily=Helvetica;fontSize=11;fontColor=default;" vertex="1" parent="lLkISHDWnRTiTxU_9IDE-5">
          <mxGeometry x="30" width="150" height="30" as="geometry">
            <mxRectangle width="150" height="30" as="alternateBounds" />
          </mxGeometry>
        </mxCell>
        <mxCell id="lLkISHDWnRTiTxU_9IDE-8" style="edgeStyle=orthogonalEdgeStyle;shape=connector;rounded=1;orthogonalLoop=1;jettySize=auto;html=1;exitX=1;exitY=0.5;exitDx=0;exitDy=0;entryX=0;entryY=0.5;entryDx=0;entryDy=0;labelBackgroundColor=default;strokeColor=default;align=center;verticalAlign=middle;fontFamily=Helvetica;fontSize=11;fontColor=default;endArrow=classic;endFill=1;" edge="1" parent="1" source="5Q8vQh_4Me6d6GsNLmm--2" target="lLkISHDWnRTiTxU_9IDE-2">
          <mxGeometry relative="1" as="geometry">
            <Array as="points">
              <mxPoint x="270" y="-45" />
              <mxPoint x="270" y="65" />
            </Array>
          </mxGeometry>
        </mxCell>
        <mxCell id="lLkISHDWnRTiTxU_9IDE-9" style="edgeStyle=orthogonalEdgeStyle;shape=connector;rounded=1;orthogonalLoop=1;jettySize=auto;html=1;exitX=1;exitY=0.5;exitDx=0;exitDy=0;entryX=0;entryY=0.5;entryDx=0;entryDy=0;labelBackgroundColor=default;strokeColor=default;align=center;verticalAlign=middle;fontFamily=Helvetica;fontSize=11;fontColor=default;endArrow=classic;endFill=1;" edge="1" parent="1" source="2KjoCLtPw_2aBKYKVv6h-2" target="lLkISHDWnRTiTxU_9IDE-5">
          <mxGeometry relative="1" as="geometry" />
        </mxCell>
        <mxCell id="h2YUttZUqmF7hPxYv835-1" value="PRODUCT" style="shape=table;startSize=30;container=1;collapsible=1;childLayout=tableLayout;fixedRows=1;rowLines=0;fontStyle=1;align=center;resizeLast=1;html=1;rounded=1;fontFamily=Helvetica;fontSize=11;fontColor=default;" vertex="1" parent="1">
          <mxGeometry x="40" y="320" width="180" height="180" as="geometry" />
        </mxCell>
        <mxCell id="h2YUttZUqmF7hPxYv835-2" value="" style="shape=tableRow;horizontal=0;startSize=0;swimlaneHead=0;swimlaneBody=0;fillColor=none;collapsible=0;dropTarget=0;points=[[0,0.5],[1,0.5]];portConstraint=eastwest;top=0;left=0;right=0;bottom=1;rounded=1;fontFamily=Helvetica;fontSize=11;fontColor=default;" vertex="1" parent="h2YUttZUqmF7hPxYv835-1">
          <mxGeometry y="30" width="180" height="30" as="geometry" />
        </mxCell>
        <mxCell id="h2YUttZUqmF7hPxYv835-3" value="PK" style="shape=partialRectangle;connectable=0;fillColor=none;top=0;left=0;bottom=0;right=0;fontStyle=1;overflow=hidden;whiteSpace=wrap;html=1;rounded=1;fontFamily=Helvetica;fontSize=11;fontColor=default;" vertex="1" parent="h2YUttZUqmF7hPxYv835-2">
          <mxGeometry width="30" height="30" as="geometry">
            <mxRectangle width="30" height="30" as="alternateBounds" />
          </mxGeometry>
        </mxCell>
        <mxCell id="h2YUttZUqmF7hPxYv835-4" value="ID : (INT)" style="shape=partialRectangle;connectable=0;fillColor=none;top=0;left=0;bottom=0;right=0;align=left;spacingLeft=6;fontStyle=5;overflow=hidden;whiteSpace=wrap;html=1;rounded=1;fontFamily=Helvetica;fontSize=11;fontColor=default;" vertex="1" parent="h2YUttZUqmF7hPxYv835-2">
          <mxGeometry x="30" width="150" height="30" as="geometry">
            <mxRectangle width="150" height="30" as="alternateBounds" />
          </mxGeometry>
        </mxCell>
        <mxCell id="h2YUttZUqmF7hPxYv835-5" value="" style="shape=tableRow;horizontal=0;startSize=0;swimlaneHead=0;swimlaneBody=0;fillColor=none;collapsible=0;dropTarget=0;points=[[0,0.5],[1,0.5]];portConstraint=eastwest;top=0;left=0;right=0;bottom=0;rounded=1;fontFamily=Helvetica;fontSize=11;fontColor=default;" vertex="1" parent="h2YUttZUqmF7hPxYv835-1">
          <mxGeometry y="60" width="180" height="30" as="geometry" />
        </mxCell>
        <mxCell id="h2YUttZUqmF7hPxYv835-6" value="" style="shape=partialRectangle;connectable=0;fillColor=none;top=0;left=0;bottom=0;right=0;editable=1;overflow=hidden;whiteSpace=wrap;html=1;rounded=1;fontFamily=Helvetica;fontSize=11;fontColor=default;" vertex="1" parent="h2YUttZUqmF7hPxYv835-5">
          <mxGeometry width="30" height="30" as="geometry">
            <mxRectangle width="30" height="30" as="alternateBounds" />
          </mxGeometry>
        </mxCell>
        <mxCell id="h2YUttZUqmF7hPxYv835-7" value="Name : (VARCHAR)" style="shape=partialRectangle;connectable=0;fillColor=none;top=0;left=0;bottom=0;right=0;align=left;spacingLeft=6;overflow=hidden;whiteSpace=wrap;html=1;rounded=1;fontFamily=Helvetica;fontSize=11;fontColor=default;" vertex="1" parent="h2YUttZUqmF7hPxYv835-5">
          <mxGeometry x="30" width="150" height="30" as="geometry">
            <mxRectangle width="150" height="30" as="alternateBounds" />
          </mxGeometry>
        </mxCell>
        <mxCell id="h2YUttZUqmF7hPxYv835-8" value="" style="shape=tableRow;horizontal=0;startSize=0;swimlaneHead=0;swimlaneBody=0;fillColor=none;collapsible=0;dropTarget=0;points=[[0,0.5],[1,0.5]];portConstraint=eastwest;top=0;left=0;right=0;bottom=0;rounded=1;fontFamily=Helvetica;fontSize=11;fontColor=default;" vertex="1" parent="h2YUttZUqmF7hPxYv835-1">
          <mxGeometry y="90" width="180" height="30" as="geometry" />
        </mxCell>
        <mxCell id="h2YUttZUqmF7hPxYv835-9" value="" style="shape=partialRectangle;connectable=0;fillColor=none;top=0;left=0;bottom=0;right=0;editable=1;overflow=hidden;whiteSpace=wrap;html=1;rounded=1;fontFamily=Helvetica;fontSize=11;fontColor=default;" vertex="1" parent="h2YUttZUqmF7hPxYv835-8">
          <mxGeometry width="30" height="30" as="geometry">
            <mxRectangle width="30" height="30" as="alternateBounds" />
          </mxGeometry>
        </mxCell>
        <mxCell id="h2YUttZUqmF7hPxYv835-10" value="List_Price : (INT)" style="shape=partialRectangle;connectable=0;fillColor=none;top=0;left=0;bottom=0;right=0;align=left;spacingLeft=6;overflow=hidden;whiteSpace=wrap;html=1;rounded=1;fontFamily=Helvetica;fontSize=11;fontColor=default;" vertex="1" parent="h2YUttZUqmF7hPxYv835-8">
          <mxGeometry x="30" width="150" height="30" as="geometry">
            <mxRectangle width="150" height="30" as="alternateBounds" />
          </mxGeometry>
        </mxCell>
        <mxCell id="h2YUttZUqmF7hPxYv835-11" value="" style="shape=tableRow;horizontal=0;startSize=0;swimlaneHead=0;swimlaneBody=0;fillColor=none;collapsible=0;dropTarget=0;points=[[0,0.5],[1,0.5]];portConstraint=eastwest;top=0;left=0;right=0;bottom=0;rounded=1;fontFamily=Helvetica;fontSize=11;fontColor=default;" vertex="1" parent="h2YUttZUqmF7hPxYv835-1">
          <mxGeometry y="120" width="180" height="30" as="geometry" />
        </mxCell>
        <mxCell id="h2YUttZUqmF7hPxYv835-12" value="" style="shape=partialRectangle;connectable=0;fillColor=none;top=0;left=0;bottom=0;right=0;editable=1;overflow=hidden;whiteSpace=wrap;html=1;rounded=1;fontFamily=Helvetica;fontSize=11;fontColor=default;" vertex="1" parent="h2YUttZUqmF7hPxYv835-11">
          <mxGeometry width="30" height="30" as="geometry">
            <mxRectangle width="30" height="30" as="alternateBounds" />
          </mxGeometry>
        </mxCell>
        <mxCell id="h2YUttZUqmF7hPxYv835-13" value="Final_Price : (INT)" style="shape=partialRectangle;connectable=0;fillColor=none;top=0;left=0;bottom=0;right=0;align=left;spacingLeft=6;overflow=hidden;whiteSpace=wrap;html=1;rounded=1;fontFamily=Helvetica;fontSize=11;fontColor=default;" vertex="1" parent="h2YUttZUqmF7hPxYv835-11">
          <mxGeometry x="30" width="150" height="30" as="geometry">
            <mxRectangle width="150" height="30" as="alternateBounds" />
          </mxGeometry>
        </mxCell>
        <mxCell id="PvtPsFORg-QpMj3ayoU7-1" value="" style="shape=tableRow;horizontal=0;startSize=0;swimlaneHead=0;swimlaneBody=0;fillColor=none;collapsible=0;dropTarget=0;points=[[0,0.5],[1,0.5]];portConstraint=eastwest;top=0;left=0;right=0;bottom=0;rounded=1;fontFamily=Helvetica;fontSize=11;fontColor=default;" vertex="1" parent="h2YUttZUqmF7hPxYv835-1">
          <mxGeometry y="150" width="180" height="30" as="geometry" />
        </mxCell>
        <mxCell id="PvtPsFORg-QpMj3ayoU7-2" value="FK" style="shape=partialRectangle;connectable=0;fillColor=none;top=0;left=0;bottom=0;right=0;editable=1;overflow=hidden;whiteSpace=wrap;html=1;rounded=1;fontFamily=Helvetica;fontSize=11;fontColor=default;" vertex="1" parent="PvtPsFORg-QpMj3ayoU7-1">
          <mxGeometry width="30" height="30" as="geometry">
            <mxRectangle width="30" height="30" as="alternateBounds" />
          </mxGeometry>
        </mxCell>
        <mxCell id="PvtPsFORg-QpMj3ayoU7-3" value="ID_Supplier : (INT)" style="shape=partialRectangle;connectable=0;fillColor=none;top=0;left=0;bottom=0;right=0;align=left;spacingLeft=6;overflow=hidden;whiteSpace=wrap;html=1;rounded=1;fontFamily=Helvetica;fontSize=11;fontColor=default;" vertex="1" parent="PvtPsFORg-QpMj3ayoU7-1">
          <mxGeometry x="30" width="150" height="30" as="geometry">
            <mxRectangle width="150" height="30" as="alternateBounds" />
          </mxGeometry>
        </mxCell>
        <mxCell id="IZwCeI2ST8RipHRfrTut-4" value="PRODUCT_X_BRAND" style="shape=table;startSize=30;container=1;collapsible=1;childLayout=tableLayout;fixedRows=1;rowLines=0;fontStyle=1;align=center;resizeLast=1;html=1;rounded=1;fontFamily=Helvetica;fontSize=11;fontColor=default;" vertex="1" parent="1">
          <mxGeometry x="324" y="220" width="180" height="90" as="geometry" />
        </mxCell>
        <mxCell id="IZwCeI2ST8RipHRfrTut-5" value="" style="shape=tableRow;horizontal=0;startSize=0;swimlaneHead=0;swimlaneBody=0;fillColor=none;collapsible=0;dropTarget=0;points=[[0,0.5],[1,0.5]];portConstraint=eastwest;top=0;left=0;right=0;bottom=1;rounded=1;fontFamily=Helvetica;fontSize=11;fontColor=default;" vertex="1" parent="IZwCeI2ST8RipHRfrTut-4">
          <mxGeometry y="30" width="180" height="30" as="geometry" />
        </mxCell>
        <mxCell id="IZwCeI2ST8RipHRfrTut-6" value="FK, PK" style="shape=partialRectangle;connectable=0;fillColor=none;top=0;left=0;bottom=0;right=0;fontStyle=1;overflow=hidden;whiteSpace=wrap;html=1;rounded=1;fontFamily=Helvetica;fontSize=11;fontColor=default;" vertex="1" parent="IZwCeI2ST8RipHRfrTut-5">
          <mxGeometry width="30" height="30" as="geometry">
            <mxRectangle width="30" height="30" as="alternateBounds" />
          </mxGeometry>
        </mxCell>
        <mxCell id="IZwCeI2ST8RipHRfrTut-7" value="&lt;u style=&quot;font-weight: 400;&quot;&gt;ID_Brand : (INT)&lt;/u&gt;" style="shape=partialRectangle;connectable=0;fillColor=none;top=0;left=0;bottom=0;right=0;align=left;spacingLeft=6;fontStyle=5;overflow=hidden;whiteSpace=wrap;html=1;rounded=1;fontFamily=Helvetica;fontSize=11;fontColor=default;" vertex="1" parent="IZwCeI2ST8RipHRfrTut-5">
          <mxGeometry x="30" width="150" height="30" as="geometry">
            <mxRectangle width="150" height="30" as="alternateBounds" />
          </mxGeometry>
        </mxCell>
        <mxCell id="IZwCeI2ST8RipHRfrTut-8" value="" style="shape=tableRow;horizontal=0;startSize=0;swimlaneHead=0;swimlaneBody=0;fillColor=none;collapsible=0;dropTarget=0;points=[[0,0.5],[1,0.5]];portConstraint=eastwest;top=0;left=0;right=0;bottom=0;rounded=1;fontFamily=Helvetica;fontSize=11;fontColor=default;" vertex="1" parent="IZwCeI2ST8RipHRfrTut-4">
          <mxGeometry y="60" width="180" height="30" as="geometry" />
        </mxCell>
        <mxCell id="IZwCeI2ST8RipHRfrTut-9" value="FK, PK" style="shape=partialRectangle;connectable=0;fillColor=none;top=0;left=0;bottom=0;right=0;editable=1;overflow=hidden;whiteSpace=wrap;html=1;rounded=1;fontFamily=Helvetica;fontSize=11;fontColor=default;" vertex="1" parent="IZwCeI2ST8RipHRfrTut-8">
          <mxGeometry width="30" height="30" as="geometry">
            <mxRectangle width="30" height="30" as="alternateBounds" />
          </mxGeometry>
        </mxCell>
        <mxCell id="IZwCeI2ST8RipHRfrTut-10" value="&lt;u&gt;ID_Product : (INT)&lt;/u&gt;" style="shape=partialRectangle;connectable=0;fillColor=none;top=0;left=0;bottom=0;right=0;align=left;spacingLeft=6;overflow=hidden;whiteSpace=wrap;html=1;rounded=1;fontFamily=Helvetica;fontSize=11;fontColor=default;" vertex="1" parent="IZwCeI2ST8RipHRfrTut-8">
          <mxGeometry x="30" width="150" height="30" as="geometry">
            <mxRectangle width="150" height="30" as="alternateBounds" />
          </mxGeometry>
        </mxCell>
        <mxCell id="IZwCeI2ST8RipHRfrTut-17" style="edgeStyle=orthogonalEdgeStyle;shape=connector;rounded=1;orthogonalLoop=1;jettySize=auto;html=1;exitX=1;exitY=0.5;exitDx=0;exitDy=0;entryX=0;entryY=0.5;entryDx=0;entryDy=0;labelBackgroundColor=default;strokeColor=default;align=center;verticalAlign=middle;fontFamily=Helvetica;fontSize=11;fontColor=default;endArrow=classic;endFill=1;" edge="1" parent="1" source="2KjoCLtPw_2aBKYKVv6h-2" target="IZwCeI2ST8RipHRfrTut-5">
          <mxGeometry relative="1" as="geometry" />
        </mxCell>
        <mxCell id="IZwCeI2ST8RipHRfrTut-18" style="edgeStyle=orthogonalEdgeStyle;shape=connector;rounded=1;orthogonalLoop=1;jettySize=auto;html=1;exitX=1;exitY=0.5;exitDx=0;exitDy=0;entryX=0;entryY=0.5;entryDx=0;entryDy=0;labelBackgroundColor=default;strokeColor=default;align=center;verticalAlign=middle;fontFamily=Helvetica;fontSize=11;fontColor=default;endArrow=classic;endFill=1;" edge="1" parent="1" source="h2YUttZUqmF7hPxYv835-2" target="IZwCeI2ST8RipHRfrTut-8">
          <mxGeometry relative="1" as="geometry" />
        </mxCell>
        <mxCell id="PvtPsFORg-QpMj3ayoU7-4" style="edgeStyle=orthogonalEdgeStyle;shape=connector;rounded=1;orthogonalLoop=1;jettySize=auto;html=1;exitX=0;exitY=0.5;exitDx=0;exitDy=0;entryX=0;entryY=0.5;entryDx=0;entryDy=0;labelBackgroundColor=default;strokeColor=default;align=center;verticalAlign=middle;fontFamily=Helvetica;fontSize=11;fontColor=default;endArrow=classic;endFill=1;" edge="1" parent="1" source="5Q8vQh_4Me6d6GsNLmm--2" target="PvtPsFORg-QpMj3ayoU7-1">
          <mxGeometry relative="1" as="geometry" />
        </mxCell>
        <mxCell id="C6IY5gq5UWEpzO9sMB3U-1" value="RECEIPT" style="shape=table;startSize=30;container=1;collapsible=1;childLayout=tableLayout;fixedRows=1;rowLines=0;fontStyle=1;align=center;resizeLast=1;html=1;rounded=1;fontFamily=Helvetica;fontSize=11;fontColor=default;" vertex="1" parent="1">
          <mxGeometry x="40" y="520" width="180" height="120" as="geometry" />
        </mxCell>
        <mxCell id="C6IY5gq5UWEpzO9sMB3U-2" value="" style="shape=tableRow;horizontal=0;startSize=0;swimlaneHead=0;swimlaneBody=0;fillColor=none;collapsible=0;dropTarget=0;points=[[0,0.5],[1,0.5]];portConstraint=eastwest;top=0;left=0;right=0;bottom=1;rounded=1;fontFamily=Helvetica;fontSize=11;fontColor=default;" vertex="1" parent="C6IY5gq5UWEpzO9sMB3U-1">
          <mxGeometry y="30" width="180" height="30" as="geometry" />
        </mxCell>
        <mxCell id="C6IY5gq5UWEpzO9sMB3U-3" value="PK" style="shape=partialRectangle;connectable=0;fillColor=none;top=0;left=0;bottom=0;right=0;fontStyle=1;overflow=hidden;whiteSpace=wrap;html=1;rounded=1;fontFamily=Helvetica;fontSize=11;fontColor=default;" vertex="1" parent="C6IY5gq5UWEpzO9sMB3U-2">
          <mxGeometry width="30" height="30" as="geometry">
            <mxRectangle width="30" height="30" as="alternateBounds" />
          </mxGeometry>
        </mxCell>
        <mxCell id="C6IY5gq5UWEpzO9sMB3U-4" value="ID : (INT)" style="shape=partialRectangle;connectable=0;fillColor=none;top=0;left=0;bottom=0;right=0;align=left;spacingLeft=6;fontStyle=5;overflow=hidden;whiteSpace=wrap;html=1;rounded=1;fontFamily=Helvetica;fontSize=11;fontColor=default;" vertex="1" parent="C6IY5gq5UWEpzO9sMB3U-2">
          <mxGeometry x="30" width="150" height="30" as="geometry">
            <mxRectangle width="150" height="30" as="alternateBounds" />
          </mxGeometry>
        </mxCell>
        <mxCell id="C6IY5gq5UWEpzO9sMB3U-5" value="" style="shape=tableRow;horizontal=0;startSize=0;swimlaneHead=0;swimlaneBody=0;fillColor=none;collapsible=0;dropTarget=0;points=[[0,0.5],[1,0.5]];portConstraint=eastwest;top=0;left=0;right=0;bottom=0;rounded=1;fontFamily=Helvetica;fontSize=11;fontColor=default;" vertex="1" parent="C6IY5gq5UWEpzO9sMB3U-1">
          <mxGeometry y="60" width="180" height="30" as="geometry" />
        </mxCell>
        <mxCell id="C6IY5gq5UWEpzO9sMB3U-6" value="" style="shape=partialRectangle;connectable=0;fillColor=none;top=0;left=0;bottom=0;right=0;editable=1;overflow=hidden;whiteSpace=wrap;html=1;rounded=1;fontFamily=Helvetica;fontSize=11;fontColor=default;" vertex="1" parent="C6IY5gq5UWEpzO9sMB3U-5">
          <mxGeometry width="30" height="30" as="geometry">
            <mxRectangle width="30" height="30" as="alternateBounds" />
          </mxGeometry>
        </mxCell>
        <mxCell id="C6IY5gq5UWEpzO9sMB3U-7" value="Description : (VARCHAR)" style="shape=partialRectangle;connectable=0;fillColor=none;top=0;left=0;bottom=0;right=0;align=left;spacingLeft=6;overflow=hidden;whiteSpace=wrap;html=1;rounded=1;fontFamily=Helvetica;fontSize=11;fontColor=default;" vertex="1" parent="C6IY5gq5UWEpzO9sMB3U-5">
          <mxGeometry x="30" width="150" height="30" as="geometry">
            <mxRectangle width="150" height="30" as="alternateBounds" />
          </mxGeometry>
        </mxCell>
        <mxCell id="Dc-uXv7iOwjgYY80TbOZ-1" value="" style="shape=tableRow;horizontal=0;startSize=0;swimlaneHead=0;swimlaneBody=0;fillColor=none;collapsible=0;dropTarget=0;points=[[0,0.5],[1,0.5]];portConstraint=eastwest;top=0;left=0;right=0;bottom=0;rounded=1;fontFamily=Helvetica;fontSize=11;fontColor=default;" vertex="1" parent="C6IY5gq5UWEpzO9sMB3U-1">
          <mxGeometry y="90" width="180" height="30" as="geometry" />
        </mxCell>
        <mxCell id="Dc-uXv7iOwjgYY80TbOZ-2" value="FK" style="shape=partialRectangle;connectable=0;fillColor=none;top=0;left=0;bottom=0;right=0;editable=1;overflow=hidden;whiteSpace=wrap;html=1;rounded=1;fontFamily=Helvetica;fontSize=11;fontColor=default;" vertex="1" parent="Dc-uXv7iOwjgYY80TbOZ-1">
          <mxGeometry width="30" height="30" as="geometry">
            <mxRectangle width="30" height="30" as="alternateBounds" />
          </mxGeometry>
        </mxCell>
        <mxCell id="Dc-uXv7iOwjgYY80TbOZ-3" value="ID_List_Receipt" style="shape=partialRectangle;connectable=0;fillColor=none;top=0;left=0;bottom=0;right=0;align=left;spacingLeft=6;overflow=hidden;whiteSpace=wrap;html=1;rounded=1;fontFamily=Helvetica;fontSize=11;fontColor=default;" vertex="1" parent="Dc-uXv7iOwjgYY80TbOZ-1">
          <mxGeometry x="30" width="150" height="30" as="geometry">
            <mxRectangle width="150" height="30" as="alternateBounds" />
          </mxGeometry>
        </mxCell>
        <mxCell id="mquVuifYzK_mAUvZFN-Z-1" value="PRODUCT_X_RECEIPT" style="shape=table;startSize=30;container=1;collapsible=1;childLayout=tableLayout;fixedRows=1;rowLines=0;fontStyle=1;align=center;resizeLast=1;html=1;rounded=1;fontFamily=Helvetica;fontSize=11;fontColor=default;" vertex="1" parent="1">
          <mxGeometry x="324" y="400" width="180" height="90" as="geometry" />
        </mxCell>
        <mxCell id="mquVuifYzK_mAUvZFN-Z-2" value="" style="shape=tableRow;horizontal=0;startSize=0;swimlaneHead=0;swimlaneBody=0;fillColor=none;collapsible=0;dropTarget=0;points=[[0,0.5],[1,0.5]];portConstraint=eastwest;top=0;left=0;right=0;bottom=1;rounded=1;fontFamily=Helvetica;fontSize=11;fontColor=default;" vertex="1" parent="mquVuifYzK_mAUvZFN-Z-1">
          <mxGeometry y="30" width="180" height="30" as="geometry" />
        </mxCell>
        <mxCell id="mquVuifYzK_mAUvZFN-Z-3" value="FK, PK" style="shape=partialRectangle;connectable=0;fillColor=none;top=0;left=0;bottom=0;right=0;fontStyle=1;overflow=hidden;whiteSpace=wrap;html=1;rounded=1;fontFamily=Helvetica;fontSize=11;fontColor=default;" vertex="1" parent="mquVuifYzK_mAUvZFN-Z-2">
          <mxGeometry width="30" height="30" as="geometry">
            <mxRectangle width="30" height="30" as="alternateBounds" />
          </mxGeometry>
        </mxCell>
        <mxCell id="mquVuifYzK_mAUvZFN-Z-4" value="&lt;u style=&quot;font-weight: 400;&quot;&gt;ID_Product : (INT)&lt;/u&gt;" style="shape=partialRectangle;connectable=0;fillColor=none;top=0;left=0;bottom=0;right=0;align=left;spacingLeft=6;fontStyle=5;overflow=hidden;whiteSpace=wrap;html=1;rounded=1;fontFamily=Helvetica;fontSize=11;fontColor=default;" vertex="1" parent="mquVuifYzK_mAUvZFN-Z-2">
          <mxGeometry x="30" width="150" height="30" as="geometry">
            <mxRectangle width="150" height="30" as="alternateBounds" />
          </mxGeometry>
        </mxCell>
        <mxCell id="mquVuifYzK_mAUvZFN-Z-5" value="" style="shape=tableRow;horizontal=0;startSize=0;swimlaneHead=0;swimlaneBody=0;fillColor=none;collapsible=0;dropTarget=0;points=[[0,0.5],[1,0.5]];portConstraint=eastwest;top=0;left=0;right=0;bottom=0;rounded=1;fontFamily=Helvetica;fontSize=11;fontColor=default;" vertex="1" parent="mquVuifYzK_mAUvZFN-Z-1">
          <mxGeometry y="60" width="180" height="30" as="geometry" />
        </mxCell>
        <mxCell id="mquVuifYzK_mAUvZFN-Z-6" value="FK, PK" style="shape=partialRectangle;connectable=0;fillColor=none;top=0;left=0;bottom=0;right=0;editable=1;overflow=hidden;whiteSpace=wrap;html=1;rounded=1;fontFamily=Helvetica;fontSize=11;fontColor=default;" vertex="1" parent="mquVuifYzK_mAUvZFN-Z-5">
          <mxGeometry width="30" height="30" as="geometry">
            <mxRectangle width="30" height="30" as="alternateBounds" />
          </mxGeometry>
        </mxCell>
        <mxCell id="mquVuifYzK_mAUvZFN-Z-7" value="&lt;u&gt;ID_Receipt : (INT)&lt;/u&gt;" style="shape=partialRectangle;connectable=0;fillColor=none;top=0;left=0;bottom=0;right=0;align=left;spacingLeft=6;overflow=hidden;whiteSpace=wrap;html=1;rounded=1;fontFamily=Helvetica;fontSize=11;fontColor=default;" vertex="1" parent="mquVuifYzK_mAUvZFN-Z-5">
          <mxGeometry x="30" width="150" height="30" as="geometry">
            <mxRectangle width="150" height="30" as="alternateBounds" />
          </mxGeometry>
        </mxCell>
        <mxCell id="mquVuifYzK_mAUvZFN-Z-8" style="edgeStyle=orthogonalEdgeStyle;shape=connector;rounded=1;orthogonalLoop=1;jettySize=auto;html=1;exitX=1;exitY=0.5;exitDx=0;exitDy=0;entryX=0;entryY=0.5;entryDx=0;entryDy=0;labelBackgroundColor=default;strokeColor=default;align=center;verticalAlign=middle;fontFamily=Helvetica;fontSize=11;fontColor=default;endArrow=classic;endFill=1;" edge="1" parent="1" source="h2YUttZUqmF7hPxYv835-2" target="mquVuifYzK_mAUvZFN-Z-2">
          <mxGeometry relative="1" as="geometry" />
        </mxCell>
        <mxCell id="mquVuifYzK_mAUvZFN-Z-9" style="edgeStyle=orthogonalEdgeStyle;shape=connector;rounded=1;orthogonalLoop=1;jettySize=auto;html=1;exitX=1;exitY=0.5;exitDx=0;exitDy=0;entryX=0;entryY=0.5;entryDx=0;entryDy=0;labelBackgroundColor=default;strokeColor=default;align=center;verticalAlign=middle;fontFamily=Helvetica;fontSize=11;fontColor=default;endArrow=classic;endFill=1;" edge="1" parent="1" source="C6IY5gq5UWEpzO9sMB3U-2" target="mquVuifYzK_mAUvZFN-Z-5">
          <mxGeometry relative="1" as="geometry" />
        </mxCell>
        <mxCell id="Dczr2qSO_3VcR2ShO8Yd-1" value="LIST_RECEIPT" style="shape=table;startSize=30;container=1;collapsible=1;childLayout=tableLayout;fixedRows=1;rowLines=0;fontStyle=1;align=center;resizeLast=1;html=1;rounded=1;fontFamily=Helvetica;fontSize=11;fontColor=default;" vertex="1" parent="1">
          <mxGeometry x="40" y="660" width="180" height="120" as="geometry" />
        </mxCell>
        <mxCell id="Dczr2qSO_3VcR2ShO8Yd-2" value="" style="shape=tableRow;horizontal=0;startSize=0;swimlaneHead=0;swimlaneBody=0;fillColor=none;collapsible=0;dropTarget=0;points=[[0,0.5],[1,0.5]];portConstraint=eastwest;top=0;left=0;right=0;bottom=1;rounded=1;fontFamily=Helvetica;fontSize=11;fontColor=default;" vertex="1" parent="Dczr2qSO_3VcR2ShO8Yd-1">
          <mxGeometry y="30" width="180" height="30" as="geometry" />
        </mxCell>
        <mxCell id="Dczr2qSO_3VcR2ShO8Yd-3" value="PK" style="shape=partialRectangle;connectable=0;fillColor=none;top=0;left=0;bottom=0;right=0;fontStyle=1;overflow=hidden;whiteSpace=wrap;html=1;rounded=1;fontFamily=Helvetica;fontSize=11;fontColor=default;" vertex="1" parent="Dczr2qSO_3VcR2ShO8Yd-2">
          <mxGeometry width="30" height="30" as="geometry">
            <mxRectangle width="30" height="30" as="alternateBounds" />
          </mxGeometry>
        </mxCell>
        <mxCell id="Dczr2qSO_3VcR2ShO8Yd-4" value="ID : (INT)" style="shape=partialRectangle;connectable=0;fillColor=none;top=0;left=0;bottom=0;right=0;align=left;spacingLeft=6;fontStyle=5;overflow=hidden;whiteSpace=wrap;html=1;rounded=1;fontFamily=Helvetica;fontSize=11;fontColor=default;" vertex="1" parent="Dczr2qSO_3VcR2ShO8Yd-2">
          <mxGeometry x="30" width="150" height="30" as="geometry">
            <mxRectangle width="150" height="30" as="alternateBounds" />
          </mxGeometry>
        </mxCell>
        <mxCell id="Dczr2qSO_3VcR2ShO8Yd-5" value="" style="shape=tableRow;horizontal=0;startSize=0;swimlaneHead=0;swimlaneBody=0;fillColor=none;collapsible=0;dropTarget=0;points=[[0,0.5],[1,0.5]];portConstraint=eastwest;top=0;left=0;right=0;bottom=0;rounded=1;fontFamily=Helvetica;fontSize=11;fontColor=default;" vertex="1" parent="Dczr2qSO_3VcR2ShO8Yd-1">
          <mxGeometry y="60" width="180" height="30" as="geometry" />
        </mxCell>
        <mxCell id="Dczr2qSO_3VcR2ShO8Yd-6" value="" style="shape=partialRectangle;connectable=0;fillColor=none;top=0;left=0;bottom=0;right=0;editable=1;overflow=hidden;whiteSpace=wrap;html=1;rounded=1;fontFamily=Helvetica;fontSize=11;fontColor=default;" vertex="1" parent="Dczr2qSO_3VcR2ShO8Yd-5">
          <mxGeometry width="30" height="30" as="geometry">
            <mxRectangle width="30" height="30" as="alternateBounds" />
          </mxGeometry>
        </mxCell>
        <mxCell id="Dczr2qSO_3VcR2ShO8Yd-7" value="Description : (VARCHAR)" style="shape=partialRectangle;connectable=0;fillColor=none;top=0;left=0;bottom=0;right=0;align=left;spacingLeft=6;overflow=hidden;whiteSpace=wrap;html=1;rounded=1;fontFamily=Helvetica;fontSize=11;fontColor=default;" vertex="1" parent="Dczr2qSO_3VcR2ShO8Yd-5">
          <mxGeometry x="30" width="150" height="30" as="geometry">
            <mxRectangle width="150" height="30" as="alternateBounds" />
          </mxGeometry>
        </mxCell>
        <mxCell id="HP_GVY7HACIwxMaiQJ_H-1" value="" style="shape=tableRow;horizontal=0;startSize=0;swimlaneHead=0;swimlaneBody=0;fillColor=none;collapsible=0;dropTarget=0;points=[[0,0.5],[1,0.5]];portConstraint=eastwest;top=0;left=0;right=0;bottom=0;rounded=1;fontFamily=Helvetica;fontSize=11;fontColor=default;" vertex="1" parent="Dczr2qSO_3VcR2ShO8Yd-1">
          <mxGeometry y="90" width="180" height="30" as="geometry" />
        </mxCell>
        <mxCell id="HP_GVY7HACIwxMaiQJ_H-2" value="FK" style="shape=partialRectangle;connectable=0;fillColor=none;top=0;left=0;bottom=0;right=0;editable=1;overflow=hidden;whiteSpace=wrap;html=1;rounded=1;fontFamily=Helvetica;fontSize=11;fontColor=default;" vertex="1" parent="HP_GVY7HACIwxMaiQJ_H-1">
          <mxGeometry width="30" height="30" as="geometry">
            <mxRectangle width="30" height="30" as="alternateBounds" />
          </mxGeometry>
        </mxCell>
        <mxCell id="HP_GVY7HACIwxMaiQJ_H-3" value="ID_Employee" style="shape=partialRectangle;connectable=0;fillColor=none;top=0;left=0;bottom=0;right=0;align=left;spacingLeft=6;overflow=hidden;whiteSpace=wrap;html=1;rounded=1;fontFamily=Helvetica;fontSize=11;fontColor=default;" vertex="1" parent="HP_GVY7HACIwxMaiQJ_H-1">
          <mxGeometry x="30" width="150" height="30" as="geometry">
            <mxRectangle width="150" height="30" as="alternateBounds" />
          </mxGeometry>
        </mxCell>
        <mxCell id="TI2XmBWUF1DxKHB6kjEd-1" style="edgeStyle=orthogonalEdgeStyle;shape=connector;rounded=1;orthogonalLoop=1;jettySize=auto;html=1;exitX=1;exitY=0.5;exitDx=0;exitDy=0;entryX=1;entryY=0.5;entryDx=0;entryDy=0;labelBackgroundColor=default;strokeColor=default;align=center;verticalAlign=middle;fontFamily=Helvetica;fontSize=11;fontColor=default;endArrow=classic;endFill=1;" edge="1" parent="1" source="Dczr2qSO_3VcR2ShO8Yd-2" target="Dc-uXv7iOwjgYY80TbOZ-1">
          <mxGeometry relative="1" as="geometry" />
        </mxCell>
        <mxCell id="fpJjtlsTc72fFMMwaWcc-7" value="EMPLOYEE" style="shape=table;startSize=30;container=1;collapsible=1;childLayout=tableLayout;fixedRows=1;rowLines=0;fontStyle=1;align=center;resizeLast=1;html=1;rounded=1;fontFamily=Helvetica;fontSize=11;fontColor=default;" vertex="1" parent="1">
          <mxGeometry x="610" y="650" width="190" height="270" as="geometry" />
        </mxCell>
        <mxCell id="fpJjtlsTc72fFMMwaWcc-8" value="" style="shape=tableRow;horizontal=0;startSize=0;swimlaneHead=0;swimlaneBody=0;fillColor=none;collapsible=0;dropTarget=0;points=[[0,0.5],[1,0.5]];portConstraint=eastwest;top=0;left=0;right=0;bottom=1;rounded=1;fontFamily=Helvetica;fontSize=11;fontColor=default;" vertex="1" parent="fpJjtlsTc72fFMMwaWcc-7">
          <mxGeometry y="30" width="190" height="30" as="geometry" />
        </mxCell>
        <mxCell id="fpJjtlsTc72fFMMwaWcc-9" value="PK" style="shape=partialRectangle;connectable=0;fillColor=none;top=0;left=0;bottom=0;right=0;fontStyle=1;overflow=hidden;whiteSpace=wrap;html=1;rounded=1;fontFamily=Helvetica;fontSize=11;fontColor=default;" vertex="1" parent="fpJjtlsTc72fFMMwaWcc-8">
          <mxGeometry width="30" height="30" as="geometry">
            <mxRectangle width="30" height="30" as="alternateBounds" />
          </mxGeometry>
        </mxCell>
        <mxCell id="fpJjtlsTc72fFMMwaWcc-10" value="ID : (INT)" style="shape=partialRectangle;connectable=0;fillColor=none;top=0;left=0;bottom=0;right=0;align=left;spacingLeft=6;fontStyle=5;overflow=hidden;whiteSpace=wrap;html=1;rounded=1;fontFamily=Helvetica;fontSize=11;fontColor=default;" vertex="1" parent="fpJjtlsTc72fFMMwaWcc-8">
          <mxGeometry x="30" width="160" height="30" as="geometry">
            <mxRectangle width="160" height="30" as="alternateBounds" />
          </mxGeometry>
        </mxCell>
        <mxCell id="fpJjtlsTc72fFMMwaWcc-11" value="" style="shape=tableRow;horizontal=0;startSize=0;swimlaneHead=0;swimlaneBody=0;fillColor=none;collapsible=0;dropTarget=0;points=[[0,0.5],[1,0.5]];portConstraint=eastwest;top=0;left=0;right=0;bottom=0;rounded=1;fontFamily=Helvetica;fontSize=11;fontColor=default;" vertex="1" parent="fpJjtlsTc72fFMMwaWcc-7">
          <mxGeometry y="60" width="190" height="30" as="geometry" />
        </mxCell>
        <mxCell id="fpJjtlsTc72fFMMwaWcc-12" value="" style="shape=partialRectangle;connectable=0;fillColor=none;top=0;left=0;bottom=0;right=0;editable=1;overflow=hidden;whiteSpace=wrap;html=1;rounded=1;fontFamily=Helvetica;fontSize=11;fontColor=default;" vertex="1" parent="fpJjtlsTc72fFMMwaWcc-11">
          <mxGeometry width="30" height="30" as="geometry">
            <mxRectangle width="30" height="30" as="alternateBounds" />
          </mxGeometry>
        </mxCell>
        <mxCell id="fpJjtlsTc72fFMMwaWcc-13" value="Rol : (VARCHAR)" style="shape=partialRectangle;connectable=0;fillColor=none;top=0;left=0;bottom=0;right=0;align=left;spacingLeft=6;overflow=hidden;whiteSpace=wrap;html=1;rounded=1;fontFamily=Helvetica;fontSize=11;fontColor=default;" vertex="1" parent="fpJjtlsTc72fFMMwaWcc-11">
          <mxGeometry x="30" width="160" height="30" as="geometry">
            <mxRectangle width="160" height="30" as="alternateBounds" />
          </mxGeometry>
        </mxCell>
        <mxCell id="fpJjtlsTc72fFMMwaWcc-14" value="" style="shape=tableRow;horizontal=0;startSize=0;swimlaneHead=0;swimlaneBody=0;fillColor=none;collapsible=0;dropTarget=0;points=[[0,0.5],[1,0.5]];portConstraint=eastwest;top=0;left=0;right=0;bottom=0;rounded=1;fontFamily=Helvetica;fontSize=11;fontColor=default;" vertex="1" parent="fpJjtlsTc72fFMMwaWcc-7">
          <mxGeometry y="90" width="190" height="30" as="geometry" />
        </mxCell>
        <mxCell id="fpJjtlsTc72fFMMwaWcc-15" value="" style="shape=partialRectangle;connectable=0;fillColor=none;top=0;left=0;bottom=0;right=0;editable=1;overflow=hidden;whiteSpace=wrap;html=1;rounded=1;fontFamily=Helvetica;fontSize=11;fontColor=default;" vertex="1" parent="fpJjtlsTc72fFMMwaWcc-14">
          <mxGeometry width="30" height="30" as="geometry">
            <mxRectangle width="30" height="30" as="alternateBounds" />
          </mxGeometry>
        </mxCell>
        <mxCell id="fpJjtlsTc72fFMMwaWcc-16" value="Name : (VARCHAR)" style="shape=partialRectangle;connectable=0;fillColor=none;top=0;left=0;bottom=0;right=0;align=left;spacingLeft=6;overflow=hidden;whiteSpace=wrap;html=1;rounded=1;fontFamily=Helvetica;fontSize=11;fontColor=default;" vertex="1" parent="fpJjtlsTc72fFMMwaWcc-14">
          <mxGeometry x="30" width="160" height="30" as="geometry">
            <mxRectangle width="160" height="30" as="alternateBounds" />
          </mxGeometry>
        </mxCell>
        <mxCell id="fpJjtlsTc72fFMMwaWcc-17" value="" style="shape=tableRow;horizontal=0;startSize=0;swimlaneHead=0;swimlaneBody=0;fillColor=none;collapsible=0;dropTarget=0;points=[[0,0.5],[1,0.5]];portConstraint=eastwest;top=0;left=0;right=0;bottom=0;rounded=1;fontFamily=Helvetica;fontSize=11;fontColor=default;" vertex="1" parent="fpJjtlsTc72fFMMwaWcc-7">
          <mxGeometry y="120" width="190" height="30" as="geometry" />
        </mxCell>
        <mxCell id="fpJjtlsTc72fFMMwaWcc-18" value="" style="shape=partialRectangle;connectable=0;fillColor=none;top=0;left=0;bottom=0;right=0;editable=1;overflow=hidden;whiteSpace=wrap;html=1;rounded=1;fontFamily=Helvetica;fontSize=11;fontColor=default;" vertex="1" parent="fpJjtlsTc72fFMMwaWcc-17">
          <mxGeometry width="30" height="30" as="geometry">
            <mxRectangle width="30" height="30" as="alternateBounds" />
          </mxGeometry>
        </mxCell>
        <mxCell id="fpJjtlsTc72fFMMwaWcc-19" value="Lastname : (VARCHAR)" style="shape=partialRectangle;connectable=0;fillColor=none;top=0;left=0;bottom=0;right=0;align=left;spacingLeft=6;overflow=hidden;whiteSpace=wrap;html=1;rounded=1;fontFamily=Helvetica;fontSize=11;fontColor=default;" vertex="1" parent="fpJjtlsTc72fFMMwaWcc-17">
          <mxGeometry x="30" width="160" height="30" as="geometry">
            <mxRectangle width="160" height="30" as="alternateBounds" />
          </mxGeometry>
        </mxCell>
        <mxCell id="fpJjtlsTc72fFMMwaWcc-20" value="" style="shape=tableRow;horizontal=0;startSize=0;swimlaneHead=0;swimlaneBody=0;fillColor=none;collapsible=0;dropTarget=0;points=[[0,0.5],[1,0.5]];portConstraint=eastwest;top=0;left=0;right=0;bottom=0;rounded=1;fontFamily=Helvetica;fontSize=11;fontColor=default;" vertex="1" parent="fpJjtlsTc72fFMMwaWcc-7">
          <mxGeometry y="150" width="190" height="30" as="geometry" />
        </mxCell>
        <mxCell id="fpJjtlsTc72fFMMwaWcc-21" value="" style="shape=partialRectangle;connectable=0;fillColor=none;top=0;left=0;bottom=0;right=0;editable=1;overflow=hidden;whiteSpace=wrap;html=1;rounded=1;fontFamily=Helvetica;fontSize=11;fontColor=default;" vertex="1" parent="fpJjtlsTc72fFMMwaWcc-20">
          <mxGeometry width="30" height="30" as="geometry">
            <mxRectangle width="30" height="30" as="alternateBounds" />
          </mxGeometry>
        </mxCell>
        <mxCell id="fpJjtlsTc72fFMMwaWcc-22" value="Email : (VARCHAR)" style="shape=partialRectangle;connectable=0;fillColor=none;top=0;left=0;bottom=0;right=0;align=left;spacingLeft=6;overflow=hidden;whiteSpace=wrap;html=1;rounded=1;fontFamily=Helvetica;fontSize=11;fontColor=default;" vertex="1" parent="fpJjtlsTc72fFMMwaWcc-20">
          <mxGeometry x="30" width="160" height="30" as="geometry">
            <mxRectangle width="160" height="30" as="alternateBounds" />
          </mxGeometry>
        </mxCell>
        <mxCell id="fpJjtlsTc72fFMMwaWcc-23" value="" style="shape=tableRow;horizontal=0;startSize=0;swimlaneHead=0;swimlaneBody=0;fillColor=none;collapsible=0;dropTarget=0;points=[[0,0.5],[1,0.5]];portConstraint=eastwest;top=0;left=0;right=0;bottom=0;rounded=1;fontFamily=Helvetica;fontSize=11;fontColor=default;" vertex="1" parent="fpJjtlsTc72fFMMwaWcc-7">
          <mxGeometry y="180" width="190" height="30" as="geometry" />
        </mxCell>
        <mxCell id="fpJjtlsTc72fFMMwaWcc-24" value="" style="shape=partialRectangle;connectable=0;fillColor=none;top=0;left=0;bottom=0;right=0;editable=1;overflow=hidden;whiteSpace=wrap;html=1;rounded=1;fontFamily=Helvetica;fontSize=11;fontColor=default;" vertex="1" parent="fpJjtlsTc72fFMMwaWcc-23">
          <mxGeometry width="30" height="30" as="geometry">
            <mxRectangle width="30" height="30" as="alternateBounds" />
          </mxGeometry>
        </mxCell>
        <mxCell id="fpJjtlsTc72fFMMwaWcc-25" value="Number_Phone : (VARCHAR)" style="shape=partialRectangle;connectable=0;fillColor=none;top=0;left=0;bottom=0;right=0;align=left;spacingLeft=6;overflow=hidden;whiteSpace=wrap;html=1;rounded=1;fontFamily=Helvetica;fontSize=11;fontColor=default;" vertex="1" parent="fpJjtlsTc72fFMMwaWcc-23">
          <mxGeometry x="30" width="160" height="30" as="geometry">
            <mxRectangle width="160" height="30" as="alternateBounds" />
          </mxGeometry>
        </mxCell>
        <mxCell id="ACX6bDiO0N-k_nsNsjmI-1" value="" style="shape=tableRow;horizontal=0;startSize=0;swimlaneHead=0;swimlaneBody=0;fillColor=none;collapsible=0;dropTarget=0;points=[[0,0.5],[1,0.5]];portConstraint=eastwest;top=0;left=0;right=0;bottom=0;rounded=1;fontFamily=Helvetica;fontSize=11;fontColor=default;" vertex="1" parent="fpJjtlsTc72fFMMwaWcc-7">
          <mxGeometry y="210" width="190" height="30" as="geometry" />
        </mxCell>
        <mxCell id="ACX6bDiO0N-k_nsNsjmI-2" value="" style="shape=partialRectangle;connectable=0;fillColor=none;top=0;left=0;bottom=0;right=0;editable=1;overflow=hidden;whiteSpace=wrap;html=1;rounded=1;fontFamily=Helvetica;fontSize=11;fontColor=default;" vertex="1" parent="ACX6bDiO0N-k_nsNsjmI-1">
          <mxGeometry width="30" height="30" as="geometry">
            <mxRectangle width="30" height="30" as="alternateBounds" />
          </mxGeometry>
        </mxCell>
        <mxCell id="ACX6bDiO0N-k_nsNsjmI-3" value="Salary : (INT)" style="shape=partialRectangle;connectable=0;fillColor=none;top=0;left=0;bottom=0;right=0;align=left;spacingLeft=6;overflow=hidden;whiteSpace=wrap;html=1;rounded=1;fontFamily=Helvetica;fontSize=11;fontColor=default;" vertex="1" parent="ACX6bDiO0N-k_nsNsjmI-1">
          <mxGeometry x="30" width="160" height="30" as="geometry">
            <mxRectangle width="160" height="30" as="alternateBounds" />
          </mxGeometry>
        </mxCell>
        <mxCell id="hceHCTH_wV2WiIxm6XiZ-1" value="" style="shape=tableRow;horizontal=0;startSize=0;swimlaneHead=0;swimlaneBody=0;fillColor=none;collapsible=0;dropTarget=0;points=[[0,0.5],[1,0.5]];portConstraint=eastwest;top=0;left=0;right=0;bottom=0;rounded=1;fontFamily=Helvetica;fontSize=11;fontColor=default;" vertex="1" parent="fpJjtlsTc72fFMMwaWcc-7">
          <mxGeometry y="240" width="190" height="30" as="geometry" />
        </mxCell>
        <mxCell id="hceHCTH_wV2WiIxm6XiZ-2" value="FK" style="shape=partialRectangle;connectable=0;fillColor=none;top=0;left=0;bottom=0;right=0;editable=1;overflow=hidden;whiteSpace=wrap;html=1;rounded=1;fontFamily=Helvetica;fontSize=11;fontColor=default;" vertex="1" parent="hceHCTH_wV2WiIxm6XiZ-1">
          <mxGeometry width="30" height="30" as="geometry">
            <mxRectangle width="30" height="30" as="alternateBounds" />
          </mxGeometry>
        </mxCell>
        <mxCell id="hceHCTH_wV2WiIxm6XiZ-3" value="ID_Supervised : (INT)" style="shape=partialRectangle;connectable=0;fillColor=none;top=0;left=0;bottom=0;right=0;align=left;spacingLeft=6;overflow=hidden;whiteSpace=wrap;html=1;rounded=1;fontFamily=Helvetica;fontSize=11;fontColor=default;" vertex="1" parent="hceHCTH_wV2WiIxm6XiZ-1">
          <mxGeometry x="30" width="160" height="30" as="geometry">
            <mxRectangle width="160" height="30" as="alternateBounds" />
          </mxGeometry>
        </mxCell>
        <mxCell id="EEbBp2HRxjJIFoS0Ap_m-1" value="WORKING_HOURS" style="shape=table;startSize=30;container=1;collapsible=1;childLayout=tableLayout;fixedRows=1;rowLines=0;fontStyle=1;align=center;resizeLast=1;html=1;rounded=1;fontFamily=Helvetica;fontSize=11;fontColor=default;" vertex="1" parent="1">
          <mxGeometry x="610" y="500" width="190" height="120" as="geometry" />
        </mxCell>
        <mxCell id="EEbBp2HRxjJIFoS0Ap_m-2" value="" style="shape=tableRow;horizontal=0;startSize=0;swimlaneHead=0;swimlaneBody=0;fillColor=none;collapsible=0;dropTarget=0;points=[[0,0.5],[1,0.5]];portConstraint=eastwest;top=0;left=0;right=0;bottom=1;rounded=1;fontFamily=Helvetica;fontSize=11;fontColor=default;" vertex="1" parent="EEbBp2HRxjJIFoS0Ap_m-1">
          <mxGeometry y="30" width="190" height="30" as="geometry" />
        </mxCell>
        <mxCell id="EEbBp2HRxjJIFoS0Ap_m-3" value="PK" style="shape=partialRectangle;connectable=0;fillColor=none;top=0;left=0;bottom=0;right=0;fontStyle=1;overflow=hidden;whiteSpace=wrap;html=1;rounded=1;fontFamily=Helvetica;fontSize=11;fontColor=default;" vertex="1" parent="EEbBp2HRxjJIFoS0Ap_m-2">
          <mxGeometry width="30" height="30" as="geometry">
            <mxRectangle width="30" height="30" as="alternateBounds" />
          </mxGeometry>
        </mxCell>
        <mxCell id="EEbBp2HRxjJIFoS0Ap_m-4" value="ID : (INT)" style="shape=partialRectangle;connectable=0;fillColor=none;top=0;left=0;bottom=0;right=0;align=left;spacingLeft=6;fontStyle=5;overflow=hidden;whiteSpace=wrap;html=1;rounded=1;fontFamily=Helvetica;fontSize=11;fontColor=default;" vertex="1" parent="EEbBp2HRxjJIFoS0Ap_m-2">
          <mxGeometry x="30" width="160" height="30" as="geometry">
            <mxRectangle width="160" height="30" as="alternateBounds" />
          </mxGeometry>
        </mxCell>
        <mxCell id="EEbBp2HRxjJIFoS0Ap_m-11" value="" style="shape=tableRow;horizontal=0;startSize=0;swimlaneHead=0;swimlaneBody=0;fillColor=none;collapsible=0;dropTarget=0;points=[[0,0.5],[1,0.5]];portConstraint=eastwest;top=0;left=0;right=0;bottom=1;rounded=1;fontFamily=Helvetica;fontSize=11;fontColor=default;" vertex="1" parent="EEbBp2HRxjJIFoS0Ap_m-1">
          <mxGeometry y="60" width="190" height="30" as="geometry" />
        </mxCell>
        <mxCell id="EEbBp2HRxjJIFoS0Ap_m-12" value="PK" style="shape=partialRectangle;connectable=0;fillColor=none;top=0;left=0;bottom=0;right=0;fontStyle=1;overflow=hidden;whiteSpace=wrap;html=1;rounded=1;fontFamily=Helvetica;fontSize=11;fontColor=default;" vertex="1" parent="EEbBp2HRxjJIFoS0Ap_m-11">
          <mxGeometry width="30" height="30" as="geometry">
            <mxRectangle width="30" height="30" as="alternateBounds" />
          </mxGeometry>
        </mxCell>
        <mxCell id="EEbBp2HRxjJIFoS0Ap_m-13" value="ID_Employee : (INT)" style="shape=partialRectangle;connectable=0;fillColor=none;top=0;left=0;bottom=0;right=0;align=left;spacingLeft=6;fontStyle=5;overflow=hidden;whiteSpace=wrap;html=1;rounded=1;fontFamily=Helvetica;fontSize=11;fontColor=default;" vertex="1" parent="EEbBp2HRxjJIFoS0Ap_m-11">
          <mxGeometry x="30" width="160" height="30" as="geometry">
            <mxRectangle width="160" height="30" as="alternateBounds" />
          </mxGeometry>
        </mxCell>
        <mxCell id="EEbBp2HRxjJIFoS0Ap_m-5" value="" style="shape=tableRow;horizontal=0;startSize=0;swimlaneHead=0;swimlaneBody=0;fillColor=none;collapsible=0;dropTarget=0;points=[[0,0.5],[1,0.5]];portConstraint=eastwest;top=0;left=0;right=0;bottom=0;rounded=1;fontFamily=Helvetica;fontSize=11;fontColor=default;" vertex="1" parent="EEbBp2HRxjJIFoS0Ap_m-1">
          <mxGeometry y="90" width="190" height="30" as="geometry" />
        </mxCell>
        <mxCell id="EEbBp2HRxjJIFoS0Ap_m-6" value="" style="shape=partialRectangle;connectable=0;fillColor=none;top=0;left=0;bottom=0;right=0;editable=1;overflow=hidden;whiteSpace=wrap;html=1;rounded=1;fontFamily=Helvetica;fontSize=11;fontColor=default;" vertex="1" parent="EEbBp2HRxjJIFoS0Ap_m-5">
          <mxGeometry width="30" height="30" as="geometry">
            <mxRectangle width="30" height="30" as="alternateBounds" />
          </mxGeometry>
        </mxCell>
        <mxCell id="EEbBp2HRxjJIFoS0Ap_m-7" value="Working_hours : (DATETIME)" style="shape=partialRectangle;connectable=0;fillColor=none;top=0;left=0;bottom=0;right=0;align=left;spacingLeft=6;overflow=hidden;whiteSpace=wrap;html=1;rounded=1;fontFamily=Helvetica;fontSize=11;fontColor=default;" vertex="1" parent="EEbBp2HRxjJIFoS0Ap_m-5">
          <mxGeometry x="30" width="160" height="30" as="geometry">
            <mxRectangle width="160" height="30" as="alternateBounds" />
          </mxGeometry>
        </mxCell>
        <mxCell id="EEbBp2HRxjJIFoS0Ap_m-14" style="edgeStyle=orthogonalEdgeStyle;shape=connector;rounded=1;orthogonalLoop=1;jettySize=auto;html=1;exitX=0;exitY=0.5;exitDx=0;exitDy=0;entryX=0;entryY=0.5;entryDx=0;entryDy=0;labelBackgroundColor=default;strokeColor=default;align=center;verticalAlign=middle;fontFamily=Helvetica;fontSize=11;fontColor=default;endArrow=classic;endFill=1;" edge="1" parent="1" source="fpJjtlsTc72fFMMwaWcc-8" target="EEbBp2HRxjJIFoS0Ap_m-11">
          <mxGeometry relative="1" as="geometry" />
        </mxCell>
        <mxCell id="bmY7OW_KIGHImdlsf4bl-1" style="edgeStyle=orthogonalEdgeStyle;shape=connector;rounded=1;orthogonalLoop=1;jettySize=auto;html=1;exitX=0;exitY=0.5;exitDx=0;exitDy=0;labelBackgroundColor=default;strokeColor=default;align=center;verticalAlign=middle;fontFamily=Helvetica;fontSize=11;fontColor=default;endArrow=classic;endFill=1;" edge="1" parent="1" source="fpJjtlsTc72fFMMwaWcc-8" target="HP_GVY7HACIwxMaiQJ_H-1">
          <mxGeometry relative="1" as="geometry" />
        </mxCell>
      </root>
    </mxGraphModel>
  </diagram>
</mxfile>
